{
	"asset":{
		"generator":"Khronos glTF Blender I/O v4.1.63",
		"version":"2.0"
	},
	"extensionsUsed":[
		"KHR_materials_specular",
		"KHR_materials_ior",
		"KHR_materials_emissive_strength"
	],
	"scene":0,
	"scenes":[
		{
			"name":"Scene",
			"nodes":[
				0,
				1,
				2,
				3,
				4,
				5,
				6,
				7,
				8,
				9,
				10
			]
		}
	],
	"nodes":[
		{
			"mesh":0,
			"name":"Icosphere",
			"translation":[
				3.584014415740967,
				3.053866386413574,
				-2.8108713626861572
			]
		},
		{
			"mesh":1,
			"name":"Sphere",
			"translation":[
				0.24886655807495117,
				5.25738525390625,
				-2.7813057899475098
			]
		},
		{
			"mesh":2,
			"name":"Sphere.001",
			"translation":[
				-0.46067163348197937,
				2.9287729263305664,
				-2.1773009300231934
			]
		},
		{
			"mesh":3,
			"name":"Cube",
			"rotation":[
				0,
				-0.20253907144069672,
				0,
				0.9792742133140564
			],
			"translation":[
				1.531276822090149,
				1,
				-1.004835605621338
			]
		},
		{
			"mesh":4,
			"name":"Prism",
			"rotation":[
				0,
				-0.5988802313804626,
				0,
				0.8008385896682739
			],
			"scale":[
				1,
				2.5,
				1
			],
			"translation":[
				-1.073345422744751,
				2.5,
				1.2661662101745605
			]
		},
		{
			"mesh":5,
			"name":"LeftWall",
			"rotation":[
				-0.7071068286895752,
				0,
				0,
				0.7071068286895752
			],
			"scale":[
				4,
				4,
				4
			],
			"translation":[
				0,
				4,
				4
			]
		},
		{
			"mesh":6,
			"name":"RightWall",
			"rotation":[
				0.7071068286895752,
				0,
				0,
				0.7071068286895752
			],
			"scale":[
				4,
				4,
				4
			],
			"translation":[
				0,
				4,
				-4
			]
		},
		{
			"mesh":7,
			"name":"Floor",
			"rotation":[
				0,
				0.7071068286895752,
				0,
				0.7071068286895752
			],
			"scale":[
				4,
				4,
				4
			]
		},
		{
			"mesh":8,
			"name":"BackWall",
			"rotation":[
				-0.5,
				-0.5,
				-0.5,
				0.5
			],
			"scale":[
				4,
				4,
				4
			],
			"translation":[
				-4,
				4,
				0
			]
		},
		{
			"mesh":9,
			"name":"Ceiling",
			"rotation":[
				0.7071068286895752,
				0,
				0.7071068286895752,
				3.090862321641907e-08
			],
			"scale":[
				4,
				4,
				4
			],
			"translation":[
				0,
				8,
				0
			]
		},
		{
			"mesh":10,
			"name":"Light",
			"rotation":[
				0.7071068286895752,
				0,
				0.7071068286895752,
				3.090862321641907e-08
			],
			"scale":[
				4,
				4,
				4
			],
			"translation":[
				0,
				8,
				0
			]
		}
	],
	"materials":[
		{
			"doubleSided":true,
			"extensions":{
				"KHR_materials_specular":{
					"specularFactor":0
				}
			},
			"name":"Blue Diffuse",
			"pbrMetallicRoughness":{
				"baseColorFactor":[
					0,
					0,
					1,
					1
				],
				"metallicFactor":0
			}
		},
		{
			"doubleSided":true,
			"extensions":{
				"KHR_materials_specular":{
					"specularFactor":0,
					"specularColorFactor":[
						0.7990984320640564,
						0.08437597006559372,
						0.6938720345497131
					]
				}
			},
			"name":"Pink",
			"pbrMetallicRoughness":{
				"baseColorFactor":[
					0.7990984320640564,
					0.08437597006559372,
					0.6938720345497131,
					1
				],
				"metallicFactor":0.5
			}
		},
		{
			"doubleSided":true,
			"extensions":{
				"KHR_materials_specular":{
					"specularFactor":0
				}
			},
			"name":"WhiteMetallic",
			"pbrMetallicRoughness":{
				"baseColorFactor":[
					0.800000011920929,
					0.800000011920929,
					0.800000011920929,
					1
				],
				"roughnessFactor":0
			}
		},
		{
			"doubleSided":true,
			"extensions":{
				"KHR_materials_specular":{
					"specularFactor":0
				},
				"KHR_materials_ior":{
					"ior":1
				}
			},
			"name":"WhiteDiffuse",
			"pbrMetallicRoughness":{
				"metallicFactor":0
			}
		},
		{
			"doubleSided":true,
			"extensions":{
				"KHR_materials_specular":{
					"specularFactor":0
				},
				"KHR_materials_ior":{
					"ior":1
				}
			},
			"name":"RedDiffuse",
			"pbrMetallicRoughness":{
				"baseColorFactor":[
					1,
					0,
					0,
					1
				],
				"metallicFactor":0
			}
		},
		{
			"doubleSided":true,
			"extensions":{
				"KHR_materials_specular":{
					"specularFactor":0
				},
				"KHR_materials_ior":{
					"ior":1
				}
			},
			"name":"GreenDiffuse",
			"pbrMetallicRoughness":{
				"baseColorFactor":[
					0,
					1,
					0,
					1
				],
				"metallicFactor":0
			}
		},
		{
			"doubleSided":true,
			"emissiveFactor":[
				1,
				1,
				1
			],
			"extensions":{
				"KHR_materials_emissive_strength":{
					"emissiveStrength":10
				}
			},
			"name":"Light",
			"pbrMetallicRoughness":{
				"metallicFactor":0
			}
		}
	],
	"meshes":[
		{
			"name":"Icosphere",
			"primitives":[
				{
					"attributes":{
						"POSITION":0,
						"NORMAL":1,
						"TANGENT":2
					},
					"indices":3,
					"material":0
				}
			]
		},
		{
			"name":"Sphere",
			"primitives":[
				{
					"attributes":{
						"POSITION":4,
						"NORMAL":5,
						"TANGENT":6
					},
					"indices":7,
					"material":1
				}
			]
		},
		{
			"name":"Sphere.001",
			"primitives":[
				{
					"attributes":{
						"POSITION":8,
						"NORMAL":9,
						"TANGENT":10
					},
					"indices":11,
					"material":2
				}
			]
		},
		{
			"name":"Cube",
			"primitives":[
				{
					"attributes":{
						"POSITION":12,
						"NORMAL":13,
						"TANGENT":14
					},
					"indices":15,
					"material":3
				}
			]
		},
		{
			"name":"Cube.007",
			"primitives":[
				{
					"attributes":{
						"POSITION":16,
						"NORMAL":17,
						"TANGENT":18
					},
					"indices":15,
					"material":2
				}
			]
		},
		{
			"name":"Plane",
			"primitives":[
				{
					"attributes":{
						"POSITION":19,
						"NORMAL":20,
						"TANGENT":21
					},
					"indices":22,
					"material":4
				}
			]
		},
		{
			"name":"Plane.001",
			"primitives":[
				{
					"attributes":{
						"POSITION":23,
						"NORMAL":24,
						"TANGENT":25
					},
					"indices":22,
					"material":5
				}
			]
		},
		{
			"name":"Plane.002",
			"primitives":[
				{
					"attributes":{
						"POSITION":26,
						"NORMAL":27,
						"TANGENT":28
					},
					"indices":22,
					"material":3
				}
			]
		},
		{
			"name":"Plane.003",
			"primitives":[
				{
					"attributes":{
						"POSITION":29,
						"NORMAL":30,
						"TANGENT":31
					},
					"indices":22,
					"material":3
				}
			]
		},
		{
			"name":"Plane.004",
			"primitives":[
				{
					"attributes":{
						"POSITION":32,
						"NORMAL":33,
						"TANGENT":34
					},
					"indices":35,
					"material":3
				}
			]
		},
		{
			"name":"Plane.005",
			"primitives":[
				{
					"attributes":{
						"POSITION":36,
						"NORMAL":37,
						"TANGENT":38
					},
					"indices":39,
					"material":6
				}
			]
		}
	],
	"accessors":[
		{
			"bufferView":0,
			"componentType":5126,
			"count":240,
			"max":[
				0.9510578513145447,
				1,
				0.9999999403953552
			],
			"min":[
				-0.9510578513145447,
				-1,
				-0.9999999403953552
			],
			"type":"VEC3"
		},
		{
			"bufferView":1,
			"componentType":5126,
			"count":240,
			"type":"VEC3"
		},
		{
			"bufferView":2,
			"componentType":5126,
			"count":240,
			"type":"VEC4"
		},
		{
			"bufferView":3,
			"componentType":5123,
			"count":240,
			"type":"SCALAR"
		},
		{
			"bufferView":4,
			"componentType":5126,
			"count":1984,
			"max":[
				0.9999997019767761,
				1,
				0.9999993443489075
			],
			"min":[
				-0.9999990463256836,
				-1,
				-1
			],
			"type":"VEC3"
		},
		{
			"bufferView":5,
			"componentType":5126,
			"count":1984,
			"type":"VEC3"
		},
		{
			"bufferView":6,
			"componentType":5126,
			"count":1984,
			"type":"VEC4"
		},
		{
			"bufferView":7,
			"componentType":5123,
			"count":2880,
			"type":"SCALAR"
		},
		{
			"bufferView":8,
			"componentType":5126,
			"count":1984,
			"max":[
				0.9999997019767761,
				1,
				0.9999993443489075
			],
			"min":[
				-0.9999990463256836,
				-1,
				-1
			],
			"type":"VEC3"
		},
		{
			"bufferView":9,
			"componentType":5126,
			"count":1984,
			"type":"VEC3"
		},
		{
			"bufferView":10,
			"componentType":5126,
			"count":1984,
			"type":"VEC4"
		},
		{
			"bufferView":11,
			"componentType":5123,
			"count":2880,
			"type":"SCALAR"
		},
		{
			"bufferView":12,
			"componentType":5126,
			"count":24,
			"max":[
				1,
				1,
				1
			],
			"min":[
				-1,
				-1,
				-1
			],
			"type":"VEC3"
		},
		{
			"bufferView":13,
			"componentType":5126,
			"count":24,
			"type":"VEC3"
		},
		{
			"bufferView":14,
			"componentType":5126,
			"count":24,
			"type":"VEC4"
		},
		{
			"bufferView":15,
			"componentType":5123,
			"count":36,
			"type":"SCALAR"
		},
		{
			"bufferView":16,
			"componentType":5126,
			"count":24,
			"max":[
				1,
				1,
				1
			],
			"min":[
				-1,
				-1,
				-1
			],
			"type":"VEC3"
		},
		{
			"bufferView":17,
			"componentType":5126,
			"count":24,
			"type":"VEC3"
		},
		{
			"bufferView":18,
			"componentType":5126,
			"count":24,
			"type":"VEC4"
		},
		{
			"bufferView":19,
			"componentType":5126,
			"count":4,
			"max":[
				1,
				0,
				1
			],
			"min":[
				-1,
				0,
				-1
			],
			"type":"VEC3"
		},
		{
			"bufferView":20,
			"componentType":5126,
			"count":4,
			"type":"VEC3"
		},
		{
			"bufferView":21,
			"componentType":5126,
			"count":4,
			"type":"VEC4"
		},
		{
			"bufferView":22,
			"componentType":5123,
			"count":6,
			"type":"SCALAR"
		},
		{
			"bufferView":23,
			"componentType":5126,
			"count":4,
			"max":[
				1,
				0,
				1
			],
			"min":[
				-1,
				0,
				-1
			],
			"type":"VEC3"
		},
		{
			"bufferView":24,
			"componentType":5126,
			"count":4,
			"type":"VEC3"
		},
		{
			"bufferView":25,
			"componentType":5126,
			"count":4,
			"type":"VEC4"
		},
		{
			"bufferView":26,
			"componentType":5126,
			"count":4,
			"max":[
				1,
				0,
				1
			],
			"min":[
				-1,
				0,
				-1
			],
			"type":"VEC3"
		},
		{
			"bufferView":27,
			"componentType":5126,
			"count":4,
			"type":"VEC3"
		},
		{
			"bufferView":28,
			"componentType":5126,
			"count":4,
			"type":"VEC4"
		},
		{
			"bufferView":29,
			"componentType":5126,
			"count":4,
			"max":[
				1,
				0,
				1
			],
			"min":[
				-1,
				0,
				-1
			],
			"type":"VEC3"
		},
		{
			"bufferView":30,
			"componentType":5126,
			"count":4,
			"type":"VEC3"
		},
		{
			"bufferView":31,
			"componentType":5126,
			"count":4,
			"type":"VEC4"
		},
		{
			"bufferView":32,
			"componentType":5126,
			"count":8,
			"max":[
				1,
				0,
				1
			],
			"min":[
				-1,
				0,
				-1
			],
			"type":"VEC3"
		},
		{
			"bufferView":33,
			"componentType":5126,
			"count":8,
			"type":"VEC3"
		},
		{
			"bufferView":34,
			"componentType":5126,
			"count":8,
			"type":"VEC4"
		},
		{
			"bufferView":35,
			"componentType":5123,
			"count":24,
			"type":"SCALAR"
		},
		{
			"bufferView":36,
			"componentType":5126,
			"count":4,
			"max":[
				0.2332385778427124,
				0,
				0.2332385778427124
			],
			"min":[
				-0.2332385778427124,
				0,
				-0.2332385778427124
			],
			"type":"VEC3"
		},
		{
			"bufferView":37,
			"componentType":5126,
			"count":4,
			"type":"VEC3"
		},
		{
			"bufferView":38,
			"componentType":5126,
			"count":4,
			"type":"VEC4"
		},
		{
			"bufferView":39,
			"componentType":5123,
			"count":6,
			"type":"SCALAR"
		}
	],
	"bufferViews":[
		{
			"buffer":0,
			"byteLength":2880,
			"byteOffset":0,
			"target":34962
		},
		{
			"buffer":0,
			"byteLength":2880,
			"byteOffset":2880,
			"target":34962
		},
		{
			"buffer":0,
			"byteLength":3840,
			"byteOffset":5760,
			"target":34962
		},
		{
			"buffer":0,
			"byteLength":480,
			"byteOffset":9600,
			"target":34963
		},
		{
			"buffer":0,
			"byteLength":23808,
			"byteOffset":10080,
			"target":34962
		},
		{
			"buffer":0,
			"byteLength":23808,
			"byteOffset":33888,
			"target":34962
		},
		{
			"buffer":0,
			"byteLength":31744,
			"byteOffset":57696,
			"target":34962
		},
		{
			"buffer":0,
			"byteLength":5760,
			"byteOffset":89440,
			"target":34963
		},
		{
			"buffer":0,
			"byteLength":23808,
			"byteOffset":95200,
			"target":34962
		},
		{
			"buffer":0,
			"byteLength":23808,
			"byteOffset":119008,
			"target":34962
		},
		{
			"buffer":0,
			"byteLength":31744,
			"byteOffset":142816,
			"target":34962
		},
		{
			"buffer":0,
			"byteLength":5760,
			"byteOffset":174560,
			"target":34963
		},
		{
			"buffer":0,
			"byteLength":288,
			"byteOffset":180320,
			"target":34962
		},
		{
			"buffer":0,
			"byteLength":288,
			"byteOffset":180608,
			"target":34962
		},
		{
			"buffer":0,
			"byteLength":384,
			"byteOffset":180896,
			"target":34962
		},
		{
			"buffer":0,
			"byteLength":72,
			"byteOffset":181280,
			"target":34963
		},
		{
			"buffer":0,
			"byteLength":288,
			"byteOffset":181352,
			"target":34962
		},
		{
			"buffer":0,
			"byteLength":288,
			"byteOffset":181640,
			"target":34962
		},
		{
			"buffer":0,
			"byteLength":384,
			"byteOffset":181928,
			"target":34962
		},
		{
			"buffer":0,
			"byteLength":48,
			"byteOffset":182312,
			"target":34962
		},
		{
			"buffer":0,
			"byteLength":48,
			"byteOffset":182360,
			"target":34962
		},
		{
			"buffer":0,
			"byteLength":64,
			"byteOffset":182408,
			"target":34962
		},
		{
			"buffer":0,
			"byteLength":12,
			"byteOffset":182472,
			"target":34963
		},
		{
			"buffer":0,
			"byteLength":48,
			"byteOffset":182484,
			"target":34962
		},
		{
			"buffer":0,
			"byteLength":48,
			"byteOffset":182532,
			"target":34962
		},
		{
			"buffer":0,
			"byteLength":64,
			"byteOffset":182580,
			"target":34962
		},
		{
			"buffer":0,
			"byteLength":48,
			"byteOffset":182644,
			"target":34962
		},
		{
			"buffer":0,
			"byteLength":48,
			"byteOffset":182692,
			"target":34962
		},
		{
			"buffer":0,
			"byteLength":64,
			"byteOffset":182740,
			"target":34962
		},
		{
			"buffer":0,
			"byteLength":48,
			"byteOffset":182804,
			"target":34962
		},
		{
			"buffer":0,
			"byteLength":48,
			"byteOffset":182852,
			"target":34962
		},
		{
			"buffer":0,
			"byteLength":64,
			"byteOffset":182900,
			"target":34962
		},
		{
			"buffer":0,
			"byteLength":96,
			"byteOffset":182964,
			"target":34962
		},
		{
			"buffer":0,
			"byteLength":96,
			"byteOffset":183060,
			"target":34962
		},
		{
			"buffer":0,
			"byteLength":128,
			"byteOffset":183156,
			"target":34962
		},
		{
			"buffer":0,
			"byteLength":48,
			"byteOffset":183284,
			"target":34963
		},
		{
			"buffer":0,
			"byteLength":48,
			"byteOffset":183332,
			"target":34962
		},
		{
			"buffer":0,
			"byteLength":48,
			"byteOffset":183380,
			"target":34962
		},
		{
			"buffer":0,
			"byteLength":64,
			"byteOffset":183428,
			"target":34962
		},
		{
			"buffer":0,
			"byteLength":12,
			"byteOffset":183492,
			"target":34963
		}
	],
	"buffers":[
		{
			"byteLength":183504,
			"uri":"my_cornell_7.bin"
		}
	]
}
