{
	"asset":{
		"generator":"Khronos glTF Blender I/O v4.1.63",
		"version":"2.0"
	},
	"extensionsUsed":[
		"KHR_materials_specular",
		"KHR_materials_ior",
		"KHR_materials_emissive_strength"
	],
	"scene":0,
	"scenes":[
		{
			"name":"Scene",
			"nodes":[
				0,
				1,
				2,
				3,
				4,
				5,
				6,
				7,
				8,
				9
			]
		}
	],
	"nodes":[
		{
			"mesh":0,
			"name":"Icosphere",
			"translation":[
				3.584014415740967,
				3.053866386413574,
				-2.8108713626861572
			]
		},
		{
			"mesh":1,
			"name":"Sphere",
			"translation":[
				1.1160800457000732,
				5.005545616149902,
				-1.218686580657959
			]
		},
		{
			"mesh":2,
			"name":"Cube",
			"rotation":[
				0,
				-0.20253907144069672,
				0,
				0.9792742133140564
			],
			"translation":[
				1.531276822090149,
				1,
				-1.004835605621338
			]
		},
		{
			"mesh":3,
			"name":"Prism",
			"rotation":[
				0,
				-0.5988802313804626,
				0,
				0.8008385896682739
			],
			"scale":[
				1,
				2.5,
				1
			],
			"translation":[
				-0.8275316953659058,
				2.5,
				1.2661662101745605
			]
		},
		{
			"mesh":4,
			"name":"LeftWall",
			"rotation":[
				-0.7071068286895752,
				0,
				0,
				0.7071068286895752
			],
			"scale":[
				4,
				4,
				4
			],
			"translation":[
				0,
				4,
				4
			]
		},
		{
			"mesh":5,
			"name":"RightWall",
			"rotation":[
				0.7071068286895752,
				0,
				0,
				0.7071068286895752
			],
			"scale":[
				4,
				4,
				4
			],
			"translation":[
				0,
				4,
				-4
			]
		},
		{
			"mesh":6,
			"name":"Floor",
			"rotation":[
				0,
				0.7071068286895752,
				0,
				0.7071068286895752
			],
			"scale":[
				4,
				4,
				4
			]
		},
		{
			"mesh":7,
			"name":"BackWall",
			"rotation":[
				-0.5,
				-0.5,
				-0.5,
				0.5
			],
			"scale":[
				4,
				4,
				4
			],
			"translation":[
				-4,
				4,
				0
			]
		},
		{
			"mesh":8,
			"name":"Ceiling",
			"rotation":[
				0.7071068286895752,
				0,
				0.7071068286895752,
				3.090862321641907e-08
			],
			"scale":[
				4,
				4,
				4
			],
			"translation":[
				0,
				8,
				0
			]
		},
		{
			"mesh":9,
			"name":"Light",
			"rotation":[
				0.7071068286895752,
				0,
				0.7071068286895752,
				3.090862321641907e-08
			],
			"scale":[
				4,
				4,
				4
			],
			"translation":[
				0,
				8,
				0
			]
		}
	],
	"materials":[
		{
			"doubleSided":true,
			"extensions":{
				"KHR_materials_specular":{
					"specularColorFactor":[
						2.0,
						2.0,
						2.0
					]
				}
			},
			"name":"Blue Diffuse",
			"pbrMetallicRoughness":{
				"baseColorFactor":[
					0,
					0,
					1,
					1
				],
				"metallicFactor":0,
				"roughnessFactor":0
			}
		},
		{
			"doubleSided":true,
			"extensions":{
				"KHR_materials_specular":{
					"specularColorFactor":[
						2.0,
						1.24467933177948,
						0.0
					]
				}
			},
			"name":"Pink",
			"pbrMetallicRoughness":{
				"baseColorFactor":[
					0.8000156879425049,
					0.08529072999954224,
					0.694621205329895,
					1
				],
				"metallicFactor":0,
				"roughnessFactor":0
			}
		},
		{
			"doubleSided":true,
			"extensions":{
				"KHR_materials_specular":{
					"specularFactor":0
				},
				"KHR_materials_ior":{
					"ior":1
				}
			},
			"name":"WhiteDiffuse",
			"pbrMetallicRoughness":{
				"metallicFactor":0
			}
		},
		{
			"doubleSided":true,
			"name":"YellowMetallic",
			"pbrMetallicRoughness":{
				"baseColorFactor":[
					1,
					1,
					0,
					1
				],
				"metallicFactor":0.5,
				"roughnessFactor":0.5
			}
		},
		{
			"doubleSided":true,
			"extensions":{
				"KHR_materials_specular":{
					"specularFactor":0
				},
				"KHR_materials_ior":{
					"ior":1
				}
			},
			"name":"RedDiffuse",
			"pbrMetallicRoughness":{
				"baseColorFactor":[
					1,
					0,
					0,
					1
				],
				"metallicFactor":0
			}
		},
		{
			"doubleSided":true,
			"extensions":{
				"KHR_materials_specular":{
					"specularFactor":0
				},
				"KHR_materials_ior":{
					"ior":1
				}
			},
			"name":"GreenDiffuse",
			"pbrMetallicRoughness":{
				"baseColorFactor":[
					0,
					1,
					0,
					1
				],
				"metallicFactor":0
			}
		},
		{
			"doubleSided":true,
			"emissiveFactor":[
				1,
				1,
				1
			],
			"extensions":{
				"KHR_materials_emissive_strength":{
					"emissiveStrength":10
				}
			},
			"name":"Light",
			"pbrMetallicRoughness":{
				"metallicFactor":0
			}
		}
	],
	"meshes":[
		{
			"name":"Icosphere",
			"primitives":[
				{
					"attributes":{
						"POSITION":0,
						"NORMAL":1,
						"TANGENT":2
					},
					"indices":3,
					"material":0
				}
			]
		},
		{
			"name":"Sphere",
			"primitives":[
				{
					"attributes":{
						"POSITION":4,
						"NORMAL":5,
						"TANGENT":6
					},
					"indices":7,
					"material":1
				}
			]
		},
		{
			"name":"Cube",
			"primitives":[
				{
					"attributes":{
						"POSITION":8,
						"NORMAL":9,
						"TANGENT":10
					},
					"indices":11,
					"material":2
				}
			]
		},
		{
			"name":"Cube.007",
			"primitives":[
				{
					"attributes":{
						"POSITION":12,
						"NORMAL":13,
						"TANGENT":14
					},
					"indices":11,
					"material":3
				}
			]
		},
		{
			"name":"Plane",
			"primitives":[
				{
					"attributes":{
						"POSITION":15,
						"NORMAL":16,
						"TANGENT":17
					},
					"indices":18,
					"material":4
				}
			]
		},
		{
			"name":"Plane.001",
			"primitives":[
				{
					"attributes":{
						"POSITION":19,
						"NORMAL":20,
						"TANGENT":21
					},
					"indices":18,
					"material":5
				}
			]
		},
		{
			"name":"Plane.002",
			"primitives":[
				{
					"attributes":{
						"POSITION":22,
						"NORMAL":23,
						"TANGENT":24
					},
					"indices":18,
					"material":2
				}
			]
		},
		{
			"name":"Plane.003",
			"primitives":[
				{
					"attributes":{
						"POSITION":25,
						"NORMAL":26,
						"TANGENT":27
					},
					"indices":18,
					"material":2
				}
			]
		},
		{
			"name":"Plane.004",
			"primitives":[
				{
					"attributes":{
						"POSITION":28,
						"NORMAL":29,
						"TANGENT":30
					},
					"indices":31,
					"material":2
				}
			]
		},
		{
			"name":"Plane.005",
			"primitives":[
				{
					"attributes":{
						"POSITION":32,
						"NORMAL":33,
						"TANGENT":34
					},
					"indices":35,
					"material":6
				}
			]
		}
	],
	"accessors":[
		{
			"bufferView":0,
			"componentType":5126,
			"count":240,
			"max":[
				0.9510578513145447,
				1,
				0.9999999403953552
			],
			"min":[
				-0.9510578513145447,
				-1,
				-0.9999999403953552
			],
			"type":"VEC3"
		},
		{
			"bufferView":1,
			"componentType":5126,
			"count":240,
			"type":"VEC3"
		},
		{
			"bufferView":2,
			"componentType":5126,
			"count":240,
			"type":"VEC4"
		},
		{
			"bufferView":3,
			"componentType":5123,
			"count":240,
			"type":"SCALAR"
		},
		{
			"bufferView":4,
			"componentType":5126,
			"count":1984,
			"max":[
				0.9999997019767761,
				1,
				0.9999993443489075
			],
			"min":[
				-0.9999990463256836,
				-1,
				-1
			],
			"type":"VEC3"
		},
		{
			"bufferView":5,
			"componentType":5126,
			"count":1984,
			"type":"VEC3"
		},
		{
			"bufferView":6,
			"componentType":5126,
			"count":1984,
			"type":"VEC4"
		},
		{
			"bufferView":7,
			"componentType":5123,
			"count":2880,
			"type":"SCALAR"
		},
		{
			"bufferView":8,
			"componentType":5126,
			"count":24,
			"max":[
				1,
				1,
				1
			],
			"min":[
				-1,
				-1,
				-1
			],
			"type":"VEC3"
		},
		{
			"bufferView":9,
			"componentType":5126,
			"count":24,
			"type":"VEC3"
		},
		{
			"bufferView":10,
			"componentType":5126,
			"count":24,
			"type":"VEC4"
		},
		{
			"bufferView":11,
			"componentType":5123,
			"count":36,
			"type":"SCALAR"
		},
		{
			"bufferView":12,
			"componentType":5126,
			"count":24,
			"max":[
				1,
				1,
				1
			],
			"min":[
				-1,
				-1,
				-1
			],
			"type":"VEC3"
		},
		{
			"bufferView":13,
			"componentType":5126,
			"count":24,
			"type":"VEC3"
		},
		{
			"bufferView":14,
			"componentType":5126,
			"count":24,
			"type":"VEC4"
		},
		{
			"bufferView":15,
			"componentType":5126,
			"count":4,
			"max":[
				1,
				0,
				1
			],
			"min":[
				-1,
				0,
				-1
			],
			"type":"VEC3"
		},
		{
			"bufferView":16,
			"componentType":5126,
			"count":4,
			"type":"VEC3"
		},
		{
			"bufferView":17,
			"componentType":5126,
			"count":4,
			"type":"VEC4"
		},
		{
			"bufferView":18,
			"componentType":5123,
			"count":6,
			"type":"SCALAR"
		},
		{
			"bufferView":19,
			"componentType":5126,
			"count":4,
			"max":[
				1,
				0,
				1
			],
			"min":[
				-1,
				0,
				-1
			],
			"type":"VEC3"
		},
		{
			"bufferView":20,
			"componentType":5126,
			"count":4,
			"type":"VEC3"
		},
		{
			"bufferView":21,
			"componentType":5126,
			"count":4,
			"type":"VEC4"
		},
		{
			"bufferView":22,
			"componentType":5126,
			"count":4,
			"max":[
				1,
				0,
				1
			],
			"min":[
				-1,
				0,
				-1
			],
			"type":"VEC3"
		},
		{
			"bufferView":23,
			"componentType":5126,
			"count":4,
			"type":"VEC3"
		},
		{
			"bufferView":24,
			"componentType":5126,
			"count":4,
			"type":"VEC4"
		},
		{
			"bufferView":25,
			"componentType":5126,
			"count":4,
			"max":[
				1,
				0,
				1
			],
			"min":[
				-1,
				0,
				-1
			],
			"type":"VEC3"
		},
		{
			"bufferView":26,
			"componentType":5126,
			"count":4,
			"type":"VEC3"
		},
		{
			"bufferView":27,
			"componentType":5126,
			"count":4,
			"type":"VEC4"
		},
		{
			"bufferView":28,
			"componentType":5126,
			"count":8,
			"max":[
				1,
				0,
				1
			],
			"min":[
				-1,
				0,
				-1
			],
			"type":"VEC3"
		},
		{
			"bufferView":29,
			"componentType":5126,
			"count":8,
			"type":"VEC3"
		},
		{
			"bufferView":30,
			"componentType":5126,
			"count":8,
			"type":"VEC4"
		},
		{
			"bufferView":31,
			"componentType":5123,
			"count":24,
			"type":"SCALAR"
		},
		{
			"bufferView":32,
			"componentType":5126,
			"count":4,
			"max":[
				0.2332385778427124,
				0,
				0.2332385778427124
			],
			"min":[
				-0.2332385778427124,
				0,
				-0.2332385778427124
			],
			"type":"VEC3"
		},
		{
			"bufferView":33,
			"componentType":5126,
			"count":4,
			"type":"VEC3"
		},
		{
			"bufferView":34,
			"componentType":5126,
			"count":4,
			"type":"VEC4"
		},
		{
			"bufferView":35,
			"componentType":5123,
			"count":6,
			"type":"SCALAR"
		}
	],
	"bufferViews":[
		{
			"buffer":0,
			"byteLength":2880,
			"byteOffset":0,
			"target":34962
		},
		{
			"buffer":0,
			"byteLength":2880,
			"byteOffset":2880,
			"target":34962
		},
		{
			"buffer":0,
			"byteLength":3840,
			"byteOffset":5760,
			"target":34962
		},
		{
			"buffer":0,
			"byteLength":480,
			"byteOffset":9600,
			"target":34963
		},
		{
			"buffer":0,
			"byteLength":23808,
			"byteOffset":10080,
			"target":34962
		},
		{
			"buffer":0,
			"byteLength":23808,
			"byteOffset":33888,
			"target":34962
		},
		{
			"buffer":0,
			"byteLength":31744,
			"byteOffset":57696,
			"target":34962
		},
		{
			"buffer":0,
			"byteLength":5760,
			"byteOffset":89440,
			"target":34963
		},
		{
			"buffer":0,
			"byteLength":288,
			"byteOffset":95200,
			"target":34962
		},
		{
			"buffer":0,
			"byteLength":288,
			"byteOffset":95488,
			"target":34962
		},
		{
			"buffer":0,
			"byteLength":384,
			"byteOffset":95776,
			"target":34962
		},
		{
			"buffer":0,
			"byteLength":72,
			"byteOffset":96160,
			"target":34963
		},
		{
			"buffer":0,
			"byteLength":288,
			"byteOffset":96232,
			"target":34962
		},
		{
			"buffer":0,
			"byteLength":288,
			"byteOffset":96520,
			"target":34962
		},
		{
			"buffer":0,
			"byteLength":384,
			"byteOffset":96808,
			"target":34962
		},
		{
			"buffer":0,
			"byteLength":48,
			"byteOffset":97192,
			"target":34962
		},
		{
			"buffer":0,
			"byteLength":48,
			"byteOffset":97240,
			"target":34962
		},
		{
			"buffer":0,
			"byteLength":64,
			"byteOffset":97288,
			"target":34962
		},
		{
			"buffer":0,
			"byteLength":12,
			"byteOffset":97352,
			"target":34963
		},
		{
			"buffer":0,
			"byteLength":48,
			"byteOffset":97364,
			"target":34962
		},
		{
			"buffer":0,
			"byteLength":48,
			"byteOffset":97412,
			"target":34962
		},
		{
			"buffer":0,
			"byteLength":64,
			"byteOffset":97460,
			"target":34962
		},
		{
			"buffer":0,
			"byteLength":48,
			"byteOffset":97524,
			"target":34962
		},
		{
			"buffer":0,
			"byteLength":48,
			"byteOffset":97572,
			"target":34962
		},
		{
			"buffer":0,
			"byteLength":64,
			"byteOffset":97620,
			"target":34962
		},
		{
			"buffer":0,
			"byteLength":48,
			"byteOffset":97684,
			"target":34962
		},
		{
			"buffer":0,
			"byteLength":48,
			"byteOffset":97732,
			"target":34962
		},
		{
			"buffer":0,
			"byteLength":64,
			"byteOffset":97780,
			"target":34962
		},
		{
			"buffer":0,
			"byteLength":96,
			"byteOffset":97844,
			"target":34962
		},
		{
			"buffer":0,
			"byteLength":96,
			"byteOffset":97940,
			"target":34962
		},
		{
			"buffer":0,
			"byteLength":128,
			"byteOffset":98036,
			"target":34962
		},
		{
			"buffer":0,
			"byteLength":48,
			"byteOffset":98164,
			"target":34963
		},
		{
			"buffer":0,
			"byteLength":48,
			"byteOffset":98212,
			"target":34962
		},
		{
			"buffer":0,
			"byteLength":48,
			"byteOffset":98260,
			"target":34962
		},
		{
			"buffer":0,
			"byteLength":64,
			"byteOffset":98308,
			"target":34962
		},
		{
			"buffer":0,
			"byteLength":12,
			"byteOffset":98372,
			"target":34963
		}
	],
	"buffers":[
		{
			"byteLength":98384,
			"uri":"my_cornell_7.bin"
		}
	]
}
