{
	"asset":{
		"generator":"Khronos glTF Blender I/O v4.1.63",
		"version":"2.0"
	},
	"extensionsUsed":[
		"KHR_materials_specular",
		"KHR_materials_ior",
		"KHR_materials_emissive_strength",
		"KHR_materials_transmission"
	],
	"scene":0,
	"scenes":[
		{
			"name":"Scene",
			"nodes":[
				0,
				1,
				2,
				3,
				4,
				5,
				6,
				7,
				8,
				9,
				10,
				11,
				12
			]
		}
	],
	"nodes":[
		{
			"mesh":0,
			"name":"Floor",
			"scale":[
				6,
				1,
				4
			]
		},
		{
			"mesh":1,
			"name":"Wall1",
			"rotation":[
				0,
				0,
				-0.7071068286895752,
				0.7071068286895752
			],
			"scale":[
				4,
				1,
				4
			],
			"translation":[
				-6,
				4,
				0
			]
		},
		{
			"mesh":2,
			"name":"Wall2",
			"rotation":[
				0,
				0,
				0.7071068286895752,
				0.7071068286895752
			],
			"scale":[
				4,
				1,
				4
			],
			"translation":[
				6,
				4,
				0
			]
		},
		{
			"mesh":3,
			"name":"Wall3",
			"rotation":[
				0.7071068286895752,
				0,
				0,
				0.7071068286895752
			],
			"scale":[
				6,
				1,
				4
			],
			"translation":[
				0,
				4,
				-4
			]
		},
		{
			"mesh":4,
			"name":"Cube",
			"rotation":[
				0,
				-0.2355569303035736,
				0,
				0.9718605875968933
			],
			"scale":[
				0.5,
				0.5,
				0.5
			],
			"translation":[
				1.199520230293274,
				0.5,
				-3.264922618865967
			]
		},
		{
			"mesh":5,
			"name":"Torus",
			"rotation":[
				0.4835122525691986,
				0.06236577779054642,
				-0.03456398844718933,
				0.8724286556243896
			],
			"scale":[
				0.5999999642372131,
				0.5,
				0.6000000238418579
			],
			"translation":[
				-0.19639086723327637,
				0.8523563146591187,
				-3.323096513748169
			]
		},
		{
			"mesh":6,
			"name":"Sphere",
			"scale":[
				0.5,
				0.5,
				0.5
			],
			"translation":[
				2.4828338623046875,
				0.5,
				-2.1886606216430664
			]
		},
		{
			"mesh":7,
			"name":"Cone",
			"rotation":[
				1,
				0,
				0,
				0
			],
			"scale":[
				-0.6000000238418579,
				-1,
				-0.6000000238418579
			],
			"translation":[
				3.0162203311920166,
				1,
				-3.2278175354003906
			]
		},
		{
			"mesh":8,
			"name":"Teapot",
			"rotation":[
				0.7071068286895752,
				0,
				0,
				0.7071068286895752
			],
			"scale":[
				0.00800000037997961,
				0.00800000037997961,
				0.00800000037997961
			],
			"translation":[
				1.1892449855804443,
				1,
				-3.2688536643981934
			]
		},
		{
			"mesh":9,
			"name":"LampStand",
			"rotation":[
				-1,
				0,
				0,
				1.9470719792025193e-07
			],
			"scale":[
				4.089926369488239e-05,
				4.089926369488239e-05,
				4.089926369488239e-05
			],
			"translation":[
				-1.3940167427062988,
				0.6549999713897705,
				-2.553943157196045
			]
		},
		{
			"mesh":10,
			"name":"LampBulb",
			"rotation":[
				-1,
				0,
				0,
				1.9470719792025193e-07
			],
			"scale":[
				4.089926369488239e-05,
				4.089926369488239e-05,
				4.089926369488239e-05
			],
			"translation":[
				-1.3940167427062988,
				0.6549999713897705,
				-2.553943157196045
			]
		},
		{
			"mesh":11,
			"name":"LampShade",
			"rotation":[
				-1,
				0,
				0,
				1.9470719792025193e-07
			],
			"scale":[
				4.089926369488239e-05,
				4.089926369488239e-05,
				4.089926369488239e-05
			],
			"translation":[
				-1.3940167427062988,
				0.6549999713897705,
				-2.553943157196045
			]
		},
		{
			"mesh":12,
			"name":"SphereStripe",
			"scale":[
				0.5,
				0.5,
				0.5
			],
			"translation":[
				2.4828338623046875,
				0.5,
				-2.1886606216430664
			]
		}
	],
	"materials":[
		{
			"doubleSided":true,
			"extensions":{
				"KHR_materials_specular":{
					"specularFactor":0
				},
				"KHR_materials_ior":{
					"ior":0
				}
			},
			"name":"Material.003",
			"pbrMetallicRoughness":{
				"baseColorFactor":[
					0.24695998430252075,
					0.03657392039895058,
					0.0011198727879673243,
					1
				],
				"metallicFactor":0
			}
		},
		{
			"doubleSided":true,
			"extensions":{
				"KHR_materials_specular":{
					"specularFactor":0
				}
			},
			"name":"WallsMaterial",
			"pbrMetallicRoughness":{
				"baseColorFactor":[
					0.6450698375701904,
					0.5695692896842957,
					0.4806259870529175,
					1
				],
				"metallicFactor":0
			}
		},
		{
			"doubleSided":true,
			"extensions":{
				"KHR_materials_specular":{
					"specularFactor":0
				}
			},
			"name":"Material.004",
			"pbrMetallicRoughness":{
				"baseColorFactor":[
					0.33469557762145996,
					0.33469557762145996,
					0.33469557762145996,
					1
				],
				"metallicFactor":0
			}
		},
		{
			"doubleSided":true,
			"extensions":{
				"KHR_materials_specular":{
					"specularFactor":0
				}
			},
			"name":"TorusMaterial",
			"pbrMetallicRoughness":{
				"baseColorFactor":[
					0.169717937707901,
					0.02707228623330593,
					0.012643365189433098,
					1
				],
				"metallicFactor":0,
				"roughnessFactor":0.5
			}
		},
		{
			"doubleSided":true,
			"extensions":{
				"KHR_materials_specular":{
					"specularFactor":0
				}
			},
			"name":"BallMaterial1",
			"pbrMetallicRoughness":{
				"baseColorFactor":[
					0.7071220874786377,
					0.30091792345046997,
					0.0021528671495616436,
					1
				],
				"metallicFactor":0
			}
		},
		{
			"doubleSided":true,
			"extensions":{
				"KHR_materials_specular":{
					"specularFactor":0
				}
			},
			"name":"Material.002",
			"pbrMetallicRoughness":{
				"baseColorFactor":[
					0.011663577519357204,
					0.05299650505185127,
					0.24108406901359558,
					1
				],
				"metallicFactor":0
			}
		},
		{
			"doubleSided":true,
			"extensions":{
				"KHR_materials_specular":{
					"specularFactor":0
				},
				"KHR_materials_ior":{
					"ior":1
				}
			},
			"name":"TeapotMaterial",
			"pbrMetallicRoughness":{
				"baseColorFactor":[
					0.800796627998352,
					0.36578792333602905,
					0,
					1
				],
				"metallicFactor":0
			}
		},
		{
			"doubleSided":true,
			"extensions":{
				"KHR_materials_specular":{
					"specularFactor":0
				}
			},
			"name":"LampMaterial",
			"pbrMetallicRoughness":{
				"baseColorFactor":[
					0.026149120181798935,
					0.010821424424648285,
					0.005302763544023037,
					1
				],
				"metallicFactor":0
			}
		},
		{
			"doubleSided":true,
			"emissiveFactor":[
				1,
				1,
				1
			],
			"extensions":{
				"KHR_materials_emissive_strength":{
					"emissiveStrength":100
				},
				"KHR_materials_specular":{
					"specularFactor":0
				}
			},
			"name":"Light",
			"pbrMetallicRoughness":{
				"baseColorFactor":[
					0.800000011920929,
					0.800000011920929,
					0.800000011920929,
					1
				],
				"metallicFactor":0
			}
		},
		{
			"doubleSided":true,
			"extensions":{
				"KHR_materials_transmission":{
					"transmissionFactor":0.10000000149011612
				},
				"KHR_materials_specular":{
					"specularFactor":0
				}
			},
			"name":"LampShadeMaterial",
			"pbrMetallicRoughness":{
				"baseColorFactor":[
					0.6551254987716675,
					0.5458580851554871,
					0.3140852451324463,
					1
				],
				"metallicFactor":0
			}
		},
		{
			"doubleSided":true,
			"extensions":{
				"KHR_materials_specular":{
					"specularFactor":0
				}
			},
			"name":"BallMaterial2",
			"pbrMetallicRoughness":{
				"baseColorFactor":[
					0.0017473598709329963,
					0.01471986435353756,
					0.5586147308349609,
					1
				],
				"metallicFactor":0
			}
		}
	],
	"meshes":[
		{
			"name":"Plane",
			"primitives":[
				{
					"attributes":{
						"POSITION":0,
						"NORMAL":1,
						"TEXCOORD_0":2,
						"TANGENT":3
					},
					"indices":4,
					"material":0
				}
			]
		},
		{
			"name":"Plane.001",
			"primitives":[
				{
					"attributes":{
						"POSITION":5,
						"NORMAL":6,
						"TEXCOORD_0":7,
						"TANGENT":8
					},
					"indices":4
				}
			]
		},
		{
			"name":"Plane.002",
			"primitives":[
				{
					"attributes":{
						"POSITION":9,
						"NORMAL":10,
						"TEXCOORD_0":11,
						"TANGENT":12
					},
					"indices":4,
					"material":1
				}
			]
		},
		{
			"name":"Plane.003",
			"primitives":[
				{
					"attributes":{
						"POSITION":13,
						"NORMAL":14,
						"TEXCOORD_0":15,
						"TANGENT":16
					},
					"indices":4
				}
			]
		},
		{
			"name":"Cube.001",
			"primitives":[
				{
					"attributes":{
						"POSITION":17,
						"NORMAL":18,
						"TEXCOORD_0":19,
						"TANGENT":20
					},
					"indices":21,
					"material":2
				}
			]
		},
		{
			"name":"Torus",
			"primitives":[
				{
					"attributes":{
						"POSITION":22,
						"NORMAL":23,
						"TEXCOORD_0":24,
						"TANGENT":25
					},
					"indices":26,
					"material":3
				}
			]
		},
		{
			"name":"Sphere",
			"primitives":[
				{
					"attributes":{
						"POSITION":27,
						"NORMAL":28,
						"TEXCOORD_0":29,
						"TANGENT":30
					},
					"indices":31,
					"material":4
				}
			]
		},
		{
			"name":"Cone",
			"primitives":[
				{
					"attributes":{
						"POSITION":32,
						"NORMAL":33,
						"TEXCOORD_0":34,
						"TANGENT":35
					},
					"indices":36,
					"material":5
				}
			]
		},
		{
			"name":"teapot",
			"primitives":[
				{
					"attributes":{
						"POSITION":37,
						"NORMAL":38,
						"TEXCOORD_0":39,
						"TANGENT":40
					},
					"indices":41,
					"material":6
				}
			]
		},
		{
			"name":"Cylinder.002",
			"primitives":[
				{
					"attributes":{
						"POSITION":42,
						"NORMAL":43,
						"TEXCOORD_0":44
					},
					"indices":45,
					"material":7
				}
			]
		},
		{
			"name":"Cylinder.001",
			"primitives":[
				{
					"attributes":{
						"POSITION":46,
						"NORMAL":47,
						"TEXCOORD_0":48
					},
					"indices":49,
					"material":8
				}
			]
		},
		{
			"name":"Cylinder.004",
			"primitives":[
				{
					"attributes":{
						"POSITION":50,
						"NORMAL":51,
						"TEXCOORD_0":52,
						"TANGENT":53
					},
					"indices":54,
					"material":9
				}
			]
		},
		{
			"name":"Sphere.001",
			"primitives":[
				{
					"attributes":{
						"POSITION":55,
						"NORMAL":56,
						"TEXCOORD_0":57,
						"TANGENT":58
					},
					"indices":59,
					"material":10
				}
			]
		}
	],
	"accessors":[
		{
			"bufferView":0,
			"componentType":5126,
			"count":4,
			"max":[
				1,
				0,
				1
			],
			"min":[
				-1,
				0,
				-1
			],
			"type":"VEC3"
		},
		{
			"bufferView":1,
			"componentType":5126,
			"count":4,
			"type":"VEC3"
		},
		{
			"bufferView":2,
			"componentType":5126,
			"count":4,
			"type":"VEC2"
		},
		{
			"bufferView":3,
			"componentType":5126,
			"count":4,
			"type":"VEC4"
		},
		{
			"bufferView":4,
			"componentType":5123,
			"count":6,
			"type":"SCALAR"
		},
		{
			"bufferView":5,
			"componentType":5126,
			"count":4,
			"max":[
				1,
				0,
				1
			],
			"min":[
				-1,
				0,
				-1
			],
			"type":"VEC3"
		},
		{
			"bufferView":6,
			"componentType":5126,
			"count":4,
			"type":"VEC3"
		},
		{
			"bufferView":7,
			"componentType":5126,
			"count":4,
			"type":"VEC2"
		},
		{
			"bufferView":8,
			"componentType":5126,
			"count":4,
			"type":"VEC4"
		},
		{
			"bufferView":9,
			"componentType":5126,
			"count":4,
			"max":[
				1,
				0,
				1
			],
			"min":[
				-1,
				0,
				-1
			],
			"type":"VEC3"
		},
		{
			"bufferView":10,
			"componentType":5126,
			"count":4,
			"type":"VEC3"
		},
		{
			"bufferView":11,
			"componentType":5126,
			"count":4,
			"type":"VEC2"
		},
		{
			"bufferView":12,
			"componentType":5126,
			"count":4,
			"type":"VEC4"
		},
		{
			"bufferView":13,
			"componentType":5126,
			"count":4,
			"max":[
				1,
				0,
				1
			],
			"min":[
				-1,
				0,
				-1
			],
			"type":"VEC3"
		},
		{
			"bufferView":14,
			"componentType":5126,
			"count":4,
			"type":"VEC3"
		},
		{
			"bufferView":15,
			"componentType":5126,
			"count":4,
			"type":"VEC2"
		},
		{
			"bufferView":16,
			"componentType":5126,
			"count":4,
			"type":"VEC4"
		},
		{
			"bufferView":17,
			"componentType":5126,
			"count":24,
			"max":[
				1,
				1,
				1
			],
			"min":[
				-1,
				-1,
				-1
			],
			"type":"VEC3"
		},
		{
			"bufferView":18,
			"componentType":5126,
			"count":24,
			"type":"VEC3"
		},
		{
			"bufferView":19,
			"componentType":5126,
			"count":24,
			"type":"VEC2"
		},
		{
			"bufferView":20,
			"componentType":5126,
			"count":24,
			"type":"VEC4"
		},
		{
			"bufferView":21,
			"componentType":5123,
			"count":36,
			"type":"SCALAR"
		},
		{
			"bufferView":22,
			"componentType":5126,
			"count":2304,
			"max":[
				1.4223724603652954,
				0.42236024141311646,
				1.4223724603652954
			],
			"min":[
				-1.4223724603652954,
				-0.42236024141311646,
				-1.4223724603652954
			],
			"type":"VEC3"
		},
		{
			"bufferView":23,
			"componentType":5126,
			"count":2304,
			"type":"VEC3"
		},
		{
			"bufferView":24,
			"componentType":5126,
			"count":2304,
			"type":"VEC2"
		},
		{
			"bufferView":25,
			"componentType":5126,
			"count":2304,
			"type":"VEC4"
		},
		{
			"bufferView":26,
			"componentType":5123,
			"count":3456,
			"type":"SCALAR"
		},
		{
			"bufferView":27,
			"componentType":5126,
			"count":1472,
			"max":[
				0.9238794445991516,
				1,
				0.9238792657852173
			],
			"min":[
				-0.9238791465759277,
				-1,
				-0.9238790273666382
			],
			"type":"VEC3"
		},
		{
			"bufferView":28,
			"componentType":5126,
			"count":1472,
			"type":"VEC3"
		},
		{
			"bufferView":29,
			"componentType":5126,
			"count":1472,
			"type":"VEC2"
		},
		{
			"bufferView":30,
			"componentType":5126,
			"count":1472,
			"type":"VEC4"
		},
		{
			"bufferView":31,
			"componentType":5123,
			"count":2112,
			"type":"SCALAR"
		},
		{
			"bufferView":32,
			"componentType":5126,
			"count":314,
			"max":[
				1,
				1,
				1
			],
			"min":[
				-1,
				-1,
				-1
			],
			"type":"VEC3"
		},
		{
			"bufferView":33,
			"componentType":5126,
			"count":314,
			"type":"VEC3"
		},
		{
			"bufferView":34,
			"componentType":5126,
			"count":314,
			"type":"VEC2"
		},
		{
			"bufferView":35,
			"componentType":5126,
			"count":314,
			"type":"VEC4"
		},
		{
			"bufferView":36,
			"componentType":5123,
			"count":684,
			"type":"SCALAR"
		},
		{
			"bufferView":37,
			"componentType":5126,
			"count":31757,
			"max":[
				82.29399871826172,
				47.9283561706543,
				0
			],
			"min":[
				-71.89253234863281,
				-47.9283561706543,
				-79.00656127929688
			],
			"type":"VEC3"
		},
		{
			"bufferView":38,
			"componentType":5126,
			"count":31757,
			"type":"VEC3"
		},
		{
			"bufferView":39,
			"componentType":5126,
			"count":31757,
			"type":"VEC2"
		},
		{
			"bufferView":40,
			"componentType":5126,
			"count":31757,
			"type":"VEC4"
		},
		{
			"bufferView":41,
			"componentType":5123,
			"count":47112,
			"type":"SCALAR"
		},
		{
			"bufferView":42,
			"componentType":5126,
			"count":119,
			"max":[
				15596.123046875,
				15997.2001953125,
				15997.1083984375
			],
			"min":[
				-15596.1103515625,
				-59609.515625,
				-14413.0703125
			],
			"type":"VEC3"
		},
		{
			"bufferView":43,
			"componentType":5126,
			"count":119,
			"type":"VEC3"
		},
		{
			"bufferView":44,
			"componentType":5126,
			"count":119,
			"type":"VEC2"
		},
		{
			"bufferView":45,
			"componentType":5123,
			"count":183,
			"type":"SCALAR"
		},
		{
			"bufferView":46,
			"componentType":5126,
			"count":35,
			"max":[
				4084.635498046875,
				-59609.515625,
				4189.6689453125
			],
			"min":[
				-4084.660400390625,
				-84636.21875,
				-3774.80615234375
			],
			"type":"VEC3"
		},
		{
			"bufferView":47,
			"componentType":5126,
			"count":35,
			"type":"VEC3"
		},
		{
			"bufferView":48,
			"componentType":5126,
			"count":35,
			"type":"VEC2"
		},
		{
			"bufferView":49,
			"componentType":5123,
			"count":57,
			"type":"SCALAR"
		},
		{
			"bufferView":50,
			"componentType":5126,
			"count":20,
			"max":[
				17899.814453125,
				-61062.53125,
				18447.228515625
			],
			"min":[
				-17861.9140625,
				-88707.390625,
				-15564.2001953125
			],
			"type":"VEC3"
		},
		{
			"bufferView":51,
			"componentType":5126,
			"count":20,
			"type":"VEC3"
		},
		{
			"bufferView":52,
			"componentType":5126,
			"count":20,
			"type":"VEC2"
		},
		{
			"bufferView":53,
			"componentType":5126,
			"count":20,
			"type":"VEC4"
		},
		{
			"bufferView":54,
			"componentType":5123,
			"count":30,
			"type":"SCALAR"
		},
		{
			"bufferView":55,
			"componentType":5126,
			"count":512,
			"max":[
				0.9999997019767761,
				0.3826834559440613,
				0.9999993443489075
			],
			"min":[
				-0.9999990463256836,
				-0.3826834559440613,
				-1
			],
			"type":"VEC3"
		},
		{
			"bufferView":56,
			"componentType":5126,
			"count":512,
			"type":"VEC3"
		},
		{
			"bufferView":57,
			"componentType":5126,
			"count":512,
			"type":"VEC2"
		},
		{
			"bufferView":58,
			"componentType":5126,
			"count":512,
			"type":"VEC4"
		},
		{
			"bufferView":59,
			"componentType":5123,
			"count":768,
			"type":"SCALAR"
		}
	],
	"bufferViews":[
		{
			"buffer":0,
			"byteLength":48,
			"byteOffset":0,
			"target":34962
		},
		{
			"buffer":0,
			"byteLength":48,
			"byteOffset":48,
			"target":34962
		},
		{
			"buffer":0,
			"byteLength":32,
			"byteOffset":96,
			"target":34962
		},
		{
			"buffer":0,
			"byteLength":64,
			"byteOffset":128,
			"target":34962
		},
		{
			"buffer":0,
			"byteLength":12,
			"byteOffset":192,
			"target":34963
		},
		{
			"buffer":0,
			"byteLength":48,
			"byteOffset":204,
			"target":34962
		},
		{
			"buffer":0,
			"byteLength":48,
			"byteOffset":252,
			"target":34962
		},
		{
			"buffer":0,
			"byteLength":32,
			"byteOffset":300,
			"target":34962
		},
		{
			"buffer":0,
			"byteLength":64,
			"byteOffset":332,
			"target":34962
		},
		{
			"buffer":0,
			"byteLength":48,
			"byteOffset":396,
			"target":34962
		},
		{
			"buffer":0,
			"byteLength":48,
			"byteOffset":444,
			"target":34962
		},
		{
			"buffer":0,
			"byteLength":32,
			"byteOffset":492,
			"target":34962
		},
		{
			"buffer":0,
			"byteLength":64,
			"byteOffset":524,
			"target":34962
		},
		{
			"buffer":0,
			"byteLength":48,
			"byteOffset":588,
			"target":34962
		},
		{
			"buffer":0,
			"byteLength":48,
			"byteOffset":636,
			"target":34962
		},
		{
			"buffer":0,
			"byteLength":32,
			"byteOffset":684,
			"target":34962
		},
		{
			"buffer":0,
			"byteLength":64,
			"byteOffset":716,
			"target":34962
		},
		{
			"buffer":0,
			"byteLength":288,
			"byteOffset":780,
			"target":34962
		},
		{
			"buffer":0,
			"byteLength":288,
			"byteOffset":1068,
			"target":34962
		},
		{
			"buffer":0,
			"byteLength":192,
			"byteOffset":1356,
			"target":34962
		},
		{
			"buffer":0,
			"byteLength":384,
			"byteOffset":1548,
			"target":34962
		},
		{
			"buffer":0,
			"byteLength":72,
			"byteOffset":1932,
			"target":34963
		},
		{
			"buffer":0,
			"byteLength":27648,
			"byteOffset":2004,
			"target":34962
		},
		{
			"buffer":0,
			"byteLength":27648,
			"byteOffset":29652,
			"target":34962
		},
		{
			"buffer":0,
			"byteLength":18432,
			"byteOffset":57300,
			"target":34962
		},
		{
			"buffer":0,
			"byteLength":36864,
			"byteOffset":75732,
			"target":34962
		},
		{
			"buffer":0,
			"byteLength":6912,
			"byteOffset":112596,
			"target":34963
		},
		{
			"buffer":0,
			"byteLength":17664,
			"byteOffset":119508,
			"target":34962
		},
		{
			"buffer":0,
			"byteLength":17664,
			"byteOffset":137172,
			"target":34962
		},
		{
			"buffer":0,
			"byteLength":11776,
			"byteOffset":154836,
			"target":34962
		},
		{
			"buffer":0,
			"byteLength":23552,
			"byteOffset":166612,
			"target":34962
		},
		{
			"buffer":0,
			"byteLength":4224,
			"byteOffset":190164,
			"target":34963
		},
		{
			"buffer":0,
			"byteLength":3768,
			"byteOffset":194388,
			"target":34962
		},
		{
			"buffer":0,
			"byteLength":3768,
			"byteOffset":198156,
			"target":34962
		},
		{
			"buffer":0,
			"byteLength":2512,
			"byteOffset":201924,
			"target":34962
		},
		{
			"buffer":0,
			"byteLength":5024,
			"byteOffset":204436,
			"target":34962
		},
		{
			"buffer":0,
			"byteLength":1368,
			"byteOffset":209460,
			"target":34963
		},
		{
			"buffer":0,
			"byteLength":381084,
			"byteOffset":210828,
			"target":34962
		},
		{
			"buffer":0,
			"byteLength":381084,
			"byteOffset":591912,
			"target":34962
		},
		{
			"buffer":0,
			"byteLength":254056,
			"byteOffset":972996,
			"target":34962
		},
		{
			"buffer":0,
			"byteLength":508112,
			"byteOffset":1227052,
			"target":34962
		},
		{
			"buffer":0,
			"byteLength":94224,
			"byteOffset":1735164,
			"target":34963
		},
		{
			"buffer":0,
			"byteLength":1428,
			"byteOffset":1829388,
			"target":34962
		},
		{
			"buffer":0,
			"byteLength":1428,
			"byteOffset":1830816,
			"target":34962
		},
		{
			"buffer":0,
			"byteLength":952,
			"byteOffset":1832244,
			"target":34962
		},
		{
			"buffer":0,
			"byteLength":366,
			"byteOffset":1833196,
			"target":34963
		},
		{
			"buffer":0,
			"byteLength":420,
			"byteOffset":1833564,
			"target":34962
		},
		{
			"buffer":0,
			"byteLength":420,
			"byteOffset":1833984,
			"target":34962
		},
		{
			"buffer":0,
			"byteLength":280,
			"byteOffset":1834404,
			"target":34962
		},
		{
			"buffer":0,
			"byteLength":114,
			"byteOffset":1834684,
			"target":34963
		},
		{
			"buffer":0,
			"byteLength":240,
			"byteOffset":1834800,
			"target":34962
		},
		{
			"buffer":0,
			"byteLength":240,
			"byteOffset":1835040,
			"target":34962
		},
		{
			"buffer":0,
			"byteLength":160,
			"byteOffset":1835280,
			"target":34962
		},
		{
			"buffer":0,
			"byteLength":320,
			"byteOffset":1835440,
			"target":34962
		},
		{
			"buffer":0,
			"byteLength":60,
			"byteOffset":1835760,
			"target":34963
		},
		{
			"buffer":0,
			"byteLength":6144,
			"byteOffset":1835820,
			"target":34962
		},
		{
			"buffer":0,
			"byteLength":6144,
			"byteOffset":1841964,
			"target":34962
		},
		{
			"buffer":0,
			"byteLength":4096,
			"byteOffset":1848108,
			"target":34962
		},
		{
			"buffer":0,
			"byteLength":8192,
			"byteOffset":1852204,
			"target":34962
		},
		{
			"buffer":0,
			"byteLength":1536,
			"byteOffset":1860396,
			"target":34963
		}
	],
	"buffers":[
		{
			"byteLength":1861932,
			"uri":"pixar-room.bin"
		}
	]
}
