{
	"asset":{
		"generator":"Khronos glTF Blender I/O v4.1.63",
		"version":"2.0"
	},
	"extensionsUsed":[
		"KHR_materials_specular",
		"KHR_materials_ior",
		"KHR_materials_emissive_strength"
	],
	"scene":0,
	"scenes":[
		{
			"name":"Scene",
			"nodes":[
				0,
				1,
				2,
				3,
				4,
				5,
				6,
				7,
				8,
				9,
				10,
				11,
				12
			]
		}
	],
	"nodes":[
		{
			"mesh":0,
			"name":"Floor",
			"scale":[
				6,
				1,
				4
			]
		},
		{
			"mesh":1,
			"name":"Wall1",
			"rotation":[
				0,
				0,
				-0.7071068286895752,
				0.7071068286895752
			],
			"scale":[
				4,
				1,
				4
			],
			"translation":[
				-6,
				4,
				0
			]
		},
		{
			"mesh":2,
			"name":"Wall2",
			"rotation":[
				0,
				0,
				0.7071068286895752,
				0.7071068286895752
			],
			"scale":[
				4,
				1,
				4
			],
			"translation":[
				6,
				4,
				0
			]
		},
		{
			"mesh":3,
			"name":"Wall3",
			"rotation":[
				0.7071068286895752,
				0,
				0,
				0.7071068286895752
			],
			"scale":[
				6,
				1,
				4
			],
			"translation":[
				0,
				4,
				-4
			]
		},
		{
			"mesh":4,
			"name":"Cube",
			"rotation":[
				0,
				-0.2355569303035736,
				0,
				0.9718605875968933
			],
			"scale":[
				0.5,
				0.5,
				0.5
			],
			"translation":[
				1.199520230293274,
				0.5,
				-3.264922618865967
			]
		},
		{
			"mesh":5,
			"name":"Torus",
			"rotation":[
				0.4835122525691986,
				0.06236577779054642,
				-0.03456398844718933,
				0.8724286556243896
			],
			"scale":[
				0.5999999642372131,
				0.5,
				0.6000000238418579
			],
			"translation":[
				-0.19639086723327637,
				0.8523563146591187,
				-3.323096513748169
			]
		},
		{
			"mesh":6,
			"name":"Teapot",
			"rotation":[
				0.7071068286895752,
				0,
				0,
				0.7071068286895752
			],
			"scale":[
				0.00800000037997961,
				0.00800000037997961,
				0.00800000037997961
			],
			"translation":[
				1.1892449855804443,
				1,
				-3.2688536643981934
			]
		},
		{
			"mesh":7,
			"name":"LampBulb",
			"rotation":[
				-1,
				0,
				0,
				1.9470718370939721e-07
			],
			"scale":[
				4.089926369488239e-05,
				1.9999999494757503e-05,
				4.089926369488239e-05
			],
			"translation":[
				-1.3940173387527466,
				3.6047725677490234,
				-2.553941488265991
			]
		},
		{
			"mesh":8,
			"name":"Cone",
			"scale":[
				0.5,
				1,
				0.5
			],
			"translation":[
				2.928318738937378,
				1,
				-3.2263331413269043
			]
		},
		{
			"mesh":9,
			"name":"Sphere",
			"scale":[
				0.5,
				0.5,
				0.5
			],
			"translation":[
				2.2577855587005615,
				0.5,
				-2.2581450939178467
			]
		},
		{
			"mesh":10,
			"name":"SphereStripe",
			"scale":[
				0.5,
				0.5,
				0.5
			],
			"translation":[
				2.2577855587005615,
				0.5,
				-2.2581450939178467
			]
		},
		{
			"mesh":11,
			"name":"LampShade",
			"rotation":[
				0.7071068286895752,
				0,
				0,
				0.7071068286895752
			],
			"scale":[
				5,
				5,
				5
			],
			"translation":[
				-1.39937424659729,
				0,
				-2.537531852722168
			]
		},
		{
			"mesh":12,
			"name":"LampStand",
			"rotation":[
				0.7071068286895752,
				0,
				0,
				0.7071068286895752
			],
			"scale":[
				5,
				5,
				5
			],
			"translation":[
				-1.39937424659729,
				0,
				-2.537531852722168
			]
		}
	],
	"materials":[
		{
			"doubleSided":true,
			"extensions":{
				"KHR_materials_specular":{
					"specularFactor":0
				},
				"KHR_materials_ior":{
					"ior":0
				}
			},
			"name":"Material.003",
			"pbrMetallicRoughness":{
				"baseColorFactor":[
					0.24695998430252075,
					0.03657392039895058,
					0.0011198727879673243,
					1
				],
				"metallicFactor":0
			}
		},
		{
			"doubleSided":true,
			"extensions":{
				"KHR_materials_specular":{
					"specularFactor":0
				}
			},
			"name":"WallsMaterial",
			"pbrMetallicRoughness":{
				"baseColorFactor":[
					0.6450698375701904,
					0.5695692896842957,
					0.4806259870529175,
					1
				],
				"metallicFactor":0
			}
		},
		{
			"doubleSided":true,
			"extensions":{
				"KHR_materials_specular":{
					"specularFactor":0
				}
			},
			"name":"Material.004",
			"pbrMetallicRoughness":{
				"baseColorFactor":[
					0.33469557762145996,
					0.33469557762145996,
					0.33469557762145996,
					1
				],
				"metallicFactor":0
			}
		},
		{
			"doubleSided":true,
			"extensions":{
				"KHR_materials_specular":{
					"specularFactor":0
				}
			},
			"name":"TorusMaterial",
			"pbrMetallicRoughness":{
				"baseColorFactor":[
					0.169717937707901,
					0.02707228623330593,
					0.012643365189433098,
					1
				],
				"metallicFactor":0,
				"roughnessFactor":0.5
			}
		},
		{
			"doubleSided":true,
			"extensions":{
				"KHR_materials_specular":{
					"specularFactor":0
				},
				"KHR_materials_ior":{
					"ior":1
				}
			},
			"name":"TeapotMaterial",
			"pbrMetallicRoughness":{
				"baseColorFactor":[
					0.800796627998352,
					0.36578792333602905,
					0,
					1
				],
				"metallicFactor":0
			}
		},
		{
			"doubleSided":true,
			"emissiveFactor":[
				1,
				1,
				1
			],
			"extensions":{
				"KHR_materials_emissive_strength":{
					"emissiveStrength":100
				},
				"KHR_materials_specular":{
					"specularFactor":0
				}
			},
			"name":"Light",
			"pbrMetallicRoughness":{
				"baseColorFactor":[
					0.800000011920929,
					0.800000011920929,
					0.800000011920929,
					1
				],
				"metallicFactor":0
			}
		},
		{
			"doubleSided":true,
			"extensions":{
				"KHR_materials_specular":{
					"specularFactor":0
				}
			},
			"name":"ConeMaterial",
			"pbrMetallicRoughness":{
				"baseColorFactor":[
					0.011663577519357204,
					0.05299650505185127,
					0.24108406901359558,
					1
				],
				"metallicFactor":0
			}
		},
		{
			"doubleSided":true,
			"extensions":{
				"KHR_materials_specular":{
					"specularFactor":0
				}
			},
			"name":"BallMaterial1",
			"pbrMetallicRoughness":{
				"baseColorFactor":[
					0.7071220874786377,
					0.30091792345046997,
					0.0021528671495616436,
					1
				],
				"metallicFactor":0
			}
		},
		{
			"doubleSided":true,
			"extensions":{
				"KHR_materials_specular":{
					"specularFactor":0
				}
			},
			"name":"BallMaterial2",
			"pbrMetallicRoughness":{
				"baseColorFactor":[
					0.0017473598709329963,
					0.01471986435353756,
					0.5586147308349609,
					1
				],
				"metallicFactor":0
			}
		},
		{
			"doubleSided":true,
			"name":"Material.005",
			"pbrMetallicRoughness":{
				"baseColorFactor":[
					0.6583709716796875,
					0.5457249879837036,
					0.3139890134334564,
					1
				],
				"metallicFactor":0,
				"roughnessFactor":0.5
			}
		},
		{
			"doubleSided":true,
			"extensions":{
				"KHR_materials_specular":{
					"specularFactor":0
				}
			},
			"name":"Material.006",
			"pbrMetallicRoughness":{
				"baseColorFactor":[
					0.0262410007417202,
					0.01095999963581562,
					0.0051819998770952225,
					1
				],
				"metallicFactor":0
			}
		}
	],
	"meshes":[
		{
			"name":"Plane",
			"primitives":[
				{
					"attributes":{
						"POSITION":0,
						"NORMAL":1,
						"TANGENT":2
					},
					"indices":3,
					"material":0
				}
			]
		},
		{
			"name":"Plane.001",
			"primitives":[
				{
					"attributes":{
						"POSITION":4,
						"NORMAL":5,
						"TANGENT":6
					},
					"indices":3
				}
			]
		},
		{
			"name":"Plane.002",
			"primitives":[
				{
					"attributes":{
						"POSITION":7,
						"NORMAL":8,
						"TANGENT":9
					},
					"indices":3,
					"material":1
				}
			]
		},
		{
			"name":"Plane.003",
			"primitives":[
				{
					"attributes":{
						"POSITION":10,
						"NORMAL":11,
						"TANGENT":12
					},
					"indices":3
				}
			]
		},
		{
			"name":"Cube.001",
			"primitives":[
				{
					"attributes":{
						"POSITION":13,
						"NORMAL":14,
						"TANGENT":15
					},
					"indices":16,
					"material":2
				}
			]
		},
		{
			"name":"Torus",
			"primitives":[
				{
					"attributes":{
						"POSITION":17,
						"NORMAL":18,
						"TANGENT":19
					},
					"indices":20,
					"material":3
				}
			]
		},
		{
			"name":"teapot",
			"primitives":[
				{
					"attributes":{
						"POSITION":21,
						"NORMAL":22,
						"TANGENT":23
					},
					"indices":24,
					"material":4
				}
			]
		},
		{
			"name":"Cylinder.001",
			"primitives":[
				{
					"attributes":{
						"POSITION":25,
						"NORMAL":26
					},
					"indices":27,
					"material":5
				}
			]
		},
		{
			"name":"Cone",
			"primitives":[
				{
					"attributes":{
						"POSITION":28,
						"NORMAL":29
					},
					"indices":30,
					"material":6
				}
			]
		},
		{
			"name":"Sphere.002",
			"primitives":[
				{
					"attributes":{
						"POSITION":31,
						"NORMAL":32,
						"TANGENT":33
					},
					"indices":34,
					"material":7
				}
			]
		},
		{
			"name":"Sphere.003",
			"primitives":[
				{
					"attributes":{
						"POSITION":35,
						"NORMAL":36,
						"TANGENT":37
					},
					"indices":38,
					"material":8
				}
			]
		},
		{
			"name":"Object_10",
			"primitives":[
				{
					"attributes":{
						"POSITION":39,
						"NORMAL":40,
						"TANGENT":41
					},
					"indices":42,
					"material":9
				}
			]
		},
		{
			"name":"Object_2.001",
			"primitives":[
				{
					"attributes":{
						"POSITION":43,
						"NORMAL":44,
						"TANGENT":45
					},
					"indices":46,
					"material":10
				}
			]
		}
	],
	"accessors":[
		{
			"bufferView":0,
			"componentType":5126,
			"count":4,
			"max":[
				1,
				0,
				1
			],
			"min":[
				-1,
				0,
				-1
			],
			"type":"VEC3"
		},
		{
			"bufferView":1,
			"componentType":5126,
			"count":4,
			"type":"VEC3"
		},
		{
			"bufferView":2,
			"componentType":5126,
			"count":4,
			"type":"VEC4"
		},
		{
			"bufferView":3,
			"componentType":5123,
			"count":6,
			"type":"SCALAR"
		},
		{
			"bufferView":4,
			"componentType":5126,
			"count":4,
			"max":[
				1,
				0,
				1
			],
			"min":[
				-1,
				0,
				-1
			],
			"type":"VEC3"
		},
		{
			"bufferView":5,
			"componentType":5126,
			"count":4,
			"type":"VEC3"
		},
		{
			"bufferView":6,
			"componentType":5126,
			"count":4,
			"type":"VEC4"
		},
		{
			"bufferView":7,
			"componentType":5126,
			"count":4,
			"max":[
				1,
				0,
				1
			],
			"min":[
				-1,
				0,
				-1
			],
			"type":"VEC3"
		},
		{
			"bufferView":8,
			"componentType":5126,
			"count":4,
			"type":"VEC3"
		},
		{
			"bufferView":9,
			"componentType":5126,
			"count":4,
			"type":"VEC4"
		},
		{
			"bufferView":10,
			"componentType":5126,
			"count":4,
			"max":[
				1,
				0,
				1
			],
			"min":[
				-1,
				0,
				-1
			],
			"type":"VEC3"
		},
		{
			"bufferView":11,
			"componentType":5126,
			"count":4,
			"type":"VEC3"
		},
		{
			"bufferView":12,
			"componentType":5126,
			"count":4,
			"type":"VEC4"
		},
		{
			"bufferView":13,
			"componentType":5126,
			"count":24,
			"max":[
				1,
				1,
				1
			],
			"min":[
				-1,
				-1,
				-1
			],
			"type":"VEC3"
		},
		{
			"bufferView":14,
			"componentType":5126,
			"count":24,
			"type":"VEC3"
		},
		{
			"bufferView":15,
			"componentType":5126,
			"count":24,
			"type":"VEC4"
		},
		{
			"bufferView":16,
			"componentType":5123,
			"count":36,
			"type":"SCALAR"
		},
		{
			"bufferView":17,
			"componentType":5126,
			"count":2304,
			"max":[
				1.4223724603652954,
				0.42236024141311646,
				1.4223724603652954
			],
			"min":[
				-1.4223724603652954,
				-0.42236024141311646,
				-1.4223724603652954
			],
			"type":"VEC3"
		},
		{
			"bufferView":18,
			"componentType":5126,
			"count":2304,
			"type":"VEC3"
		},
		{
			"bufferView":19,
			"componentType":5126,
			"count":2304,
			"type":"VEC4"
		},
		{
			"bufferView":20,
			"componentType":5123,
			"count":3456,
			"type":"SCALAR"
		},
		{
			"bufferView":21,
			"componentType":5126,
			"count":31757,
			"max":[
				82.29399871826172,
				47.9283561706543,
				0
			],
			"min":[
				-71.89253234863281,
				-47.9283561706543,
				-79.00656127929688
			],
			"type":"VEC3"
		},
		{
			"bufferView":22,
			"componentType":5126,
			"count":31757,
			"type":"VEC3"
		},
		{
			"bufferView":23,
			"componentType":5126,
			"count":31757,
			"type":"VEC4"
		},
		{
			"bufferView":24,
			"componentType":5123,
			"count":47112,
			"type":"SCALAR"
		},
		{
			"bufferView":25,
			"componentType":5126,
			"count":35,
			"max":[
				4084.650634765625,
				12513.359375,
				4189.68359375
			],
			"min":[
				-4084.645263671875,
				-12513.34375,
				-3774.79150390625
			],
			"type":"VEC3"
		},
		{
			"bufferView":26,
			"componentType":5126,
			"count":35,
			"type":"VEC3"
		},
		{
			"bufferView":27,
			"componentType":5123,
			"count":57,
			"type":"SCALAR"
		},
		{
			"bufferView":28,
			"componentType":5126,
			"count":128,
			"max":[
				1,
				1,
				1
			],
			"min":[
				-1,
				-1,
				-1
			],
			"type":"VEC3"
		},
		{
			"bufferView":29,
			"componentType":5126,
			"count":128,
			"type":"VEC3"
		},
		{
			"bufferView":30,
			"componentType":5123,
			"count":186,
			"type":"SCALAR"
		},
		{
			"bufferView":31,
			"componentType":5126,
			"count":1472,
			"max":[
				0.9238794445991516,
				1,
				0.9238792657852173
			],
			"min":[
				-0.9238791465759277,
				-1,
				-0.9238790273666382
			],
			"type":"VEC3"
		},
		{
			"bufferView":32,
			"componentType":5126,
			"count":1472,
			"type":"VEC3"
		},
		{
			"bufferView":33,
			"componentType":5126,
			"count":1472,
			"type":"VEC4"
		},
		{
			"bufferView":34,
			"componentType":5123,
			"count":2112,
			"type":"SCALAR"
		},
		{
			"bufferView":35,
			"componentType":5126,
			"count":512,
			"max":[
				0.9999997019767761,
				0.3826834559440613,
				0.9999993443489075
			],
			"min":[
				-0.9999990463256836,
				-0.3826834559440613,
				-1
			],
			"type":"VEC3"
		},
		{
			"bufferView":36,
			"componentType":5126,
			"count":512,
			"type":"VEC3"
		},
		{
			"bufferView":37,
			"componentType":5126,
			"count":512,
			"type":"VEC4"
		},
		{
			"bufferView":38,
			"componentType":5123,
			"count":768,
			"type":"SCALAR"
		},
		{
			"bufferView":39,
			"componentType":5126,
			"count":487,
			"max":[
				0.12358000129461288,
				0.12358099967241287,
				-0.6521700024604797
			],
			"min":[
				-0.12358099967241287,
				-0.12358099967241287,
				-0.8265950083732605
			],
			"type":"VEC3"
		},
		{
			"bufferView":40,
			"componentType":5126,
			"count":487,
			"type":"VEC3"
		},
		{
			"bufferView":41,
			"componentType":5126,
			"count":487,
			"type":"VEC4"
		},
		{
			"bufferView":42,
			"componentType":5123,
			"count":741,
			"type":"SCALAR"
		},
		{
			"bufferView":43,
			"componentType":5126,
			"count":9194,
			"max":[
				0.14904700219631195,
				0.09835900366306305,
				0
			],
			"min":[
				-0.15873700380325317,
				-0.17672200500965118,
				-0.6848800182342529
			],
			"type":"VEC3"
		},
		{
			"bufferView":44,
			"componentType":5126,
			"count":9194,
			"type":"VEC3"
		},
		{
			"bufferView":45,
			"componentType":5126,
			"count":9194,
			"type":"VEC4"
		},
		{
			"bufferView":46,
			"componentType":5123,
			"count":31644,
			"type":"SCALAR"
		}
	],
	"bufferViews":[
		{
			"buffer":0,
			"byteLength":48,
			"byteOffset":0,
			"target":34962
		},
		{
			"buffer":0,
			"byteLength":48,
			"byteOffset":48,
			"target":34962
		},
		{
			"buffer":0,
			"byteLength":64,
			"byteOffset":96,
			"target":34962
		},
		{
			"buffer":0,
			"byteLength":12,
			"byteOffset":160,
			"target":34963
		},
		{
			"buffer":0,
			"byteLength":48,
			"byteOffset":172,
			"target":34962
		},
		{
			"buffer":0,
			"byteLength":48,
			"byteOffset":220,
			"target":34962
		},
		{
			"buffer":0,
			"byteLength":64,
			"byteOffset":268,
			"target":34962
		},
		{
			"buffer":0,
			"byteLength":48,
			"byteOffset":332,
			"target":34962
		},
		{
			"buffer":0,
			"byteLength":48,
			"byteOffset":380,
			"target":34962
		},
		{
			"buffer":0,
			"byteLength":64,
			"byteOffset":428,
			"target":34962
		},
		{
			"buffer":0,
			"byteLength":48,
			"byteOffset":492,
			"target":34962
		},
		{
			"buffer":0,
			"byteLength":48,
			"byteOffset":540,
			"target":34962
		},
		{
			"buffer":0,
			"byteLength":64,
			"byteOffset":588,
			"target":34962
		},
		{
			"buffer":0,
			"byteLength":288,
			"byteOffset":652,
			"target":34962
		},
		{
			"buffer":0,
			"byteLength":288,
			"byteOffset":940,
			"target":34962
		},
		{
			"buffer":0,
			"byteLength":384,
			"byteOffset":1228,
			"target":34962
		},
		{
			"buffer":0,
			"byteLength":72,
			"byteOffset":1612,
			"target":34963
		},
		{
			"buffer":0,
			"byteLength":27648,
			"byteOffset":1684,
			"target":34962
		},
		{
			"buffer":0,
			"byteLength":27648,
			"byteOffset":29332,
			"target":34962
		},
		{
			"buffer":0,
			"byteLength":36864,
			"byteOffset":56980,
			"target":34962
		},
		{
			"buffer":0,
			"byteLength":6912,
			"byteOffset":93844,
			"target":34963
		},
		{
			"buffer":0,
			"byteLength":381084,
			"byteOffset":100756,
			"target":34962
		},
		{
			"buffer":0,
			"byteLength":381084,
			"byteOffset":481840,
			"target":34962
		},
		{
			"buffer":0,
			"byteLength":508112,
			"byteOffset":862924,
			"target":34962
		},
		{
			"buffer":0,
			"byteLength":94224,
			"byteOffset":1371036,
			"target":34963
		},
		{
			"buffer":0,
			"byteLength":420,
			"byteOffset":1465260,
			"target":34962
		},
		{
			"buffer":0,
			"byteLength":420,
			"byteOffset":1465680,
			"target":34962
		},
		{
			"buffer":0,
			"byteLength":114,
			"byteOffset":1466100,
			"target":34963
		},
		{
			"buffer":0,
			"byteLength":1536,
			"byteOffset":1466216,
			"target":34962
		},
		{
			"buffer":0,
			"byteLength":1536,
			"byteOffset":1467752,
			"target":34962
		},
		{
			"buffer":0,
			"byteLength":372,
			"byteOffset":1469288,
			"target":34963
		},
		{
			"buffer":0,
			"byteLength":17664,
			"byteOffset":1469660,
			"target":34962
		},
		{
			"buffer":0,
			"byteLength":17664,
			"byteOffset":1487324,
			"target":34962
		},
		{
			"buffer":0,
			"byteLength":23552,
			"byteOffset":1504988,
			"target":34962
		},
		{
			"buffer":0,
			"byteLength":4224,
			"byteOffset":1528540,
			"target":34963
		},
		{
			"buffer":0,
			"byteLength":6144,
			"byteOffset":1532764,
			"target":34962
		},
		{
			"buffer":0,
			"byteLength":6144,
			"byteOffset":1538908,
			"target":34962
		},
		{
			"buffer":0,
			"byteLength":8192,
			"byteOffset":1545052,
			"target":34962
		},
		{
			"buffer":0,
			"byteLength":1536,
			"byteOffset":1553244,
			"target":34963
		},
		{
			"buffer":0,
			"byteLength":5844,
			"byteOffset":1554780,
			"target":34962
		},
		{
			"buffer":0,
			"byteLength":5844,
			"byteOffset":1560624,
			"target":34962
		},
		{
			"buffer":0,
			"byteLength":7792,
			"byteOffset":1566468,
			"target":34962
		},
		{
			"buffer":0,
			"byteLength":1482,
			"byteOffset":1574260,
			"target":34963
		},
		{
			"buffer":0,
			"byteLength":110328,
			"byteOffset":1575744,
			"target":34962
		},
		{
			"buffer":0,
			"byteLength":110328,
			"byteOffset":1686072,
			"target":34962
		},
		{
			"buffer":0,
			"byteLength":147104,
			"byteOffset":1796400,
			"target":34962
		},
		{
			"buffer":0,
			"byteLength":63288,
			"byteOffset":1943504,
			"target":34963
		}
	],
	"buffers":[
		{
			"byteLength":2006792,
			"uri":"pixar-room-7.bin"
		}
	]
}
