{
	"asset":{
		"generator":"Khronos glTF Blender I/O v4.1.63",
		"version":"2.0"
	},
	"extensionsUsed":[
		"KHR_materials_specular",
		"KHR_materials_ior",
		"KHR_materials_emissive_strength",
		"KHR_materials_transmission"
	],
	"scene":0,
	"scenes":[
		{
			"name":"Scene",
			"nodes":[
				0,
				1,
				2,
				3,
				4,
				5,
				6,
				7,
				8,
				9,
				10,
				11,
				12,
				13,
				14
			]
		}
	],
	"nodes":[
		{
			"mesh":0,
			"name":"Floor",
			"scale":[
				6,
				1,
				4
			]
		},
		{
			"mesh":1,
			"name":"Wall1",
			"rotation":[
				0,
				0,
				-0.7071068286895752,
				0.7071068286895752
			],
			"scale":[
				4,
				1,
				4
			],
			"translation":[
				-6,
				4,
				0
			]
		},
		{
			"mesh":2,
			"name":"Wall2",
			"rotation":[
				0,
				0,
				0.7071068286895752,
				0.7071068286895752
			],
			"scale":[
				4,
				1,
				4
			],
			"translation":[
				6,
				4,
				0
			]
		},
		{
			"mesh":3,
			"name":"Wall3",
			"rotation":[
				0.7071068286895752,
				0,
				0,
				0.7071068286895752
			],
			"scale":[
				6,
				1,
				4
			],
			"translation":[
				0,
				4,
				-4
			]
		},
		{
			"mesh":4,
			"name":"Cube",
			"rotation":[
				0,
				-0.2355569303035736,
				0,
				0.9718605875968933
			],
			"scale":[
				0.5,
				0.5,
				0.5
			],
			"translation":[
				1.199520230293274,
				0.5,
				-3.264922618865967
			]
		},
		{
			"mesh":5,
			"name":"Torus",
			"rotation":[
				0.4835122525691986,
				0.06236577779054642,
				-0.03456398844718933,
				0.8724286556243896
			],
			"scale":[
				0.5999999642372131,
				0.5,
				0.6000000238418579
			],
			"translation":[
				-0.19639086723327637,
				0.8523563146591187,
				-3.323096513748169
			]
		},
		{
			"mesh":6,
			"name":"Sphere",
			"scale":[
				0.5,
				0.5,
				0.5
			],
			"translation":[
				2.4828338623046875,
				0.5,
				-2.1886606216430664
			]
		},
		{
			"mesh":7,
			"name":"Teapot",
			"rotation":[
				0.7071068286895752,
				0,
				0,
				0.7071068286895752
			],
			"scale":[
				0.00800000037997961,
				0.00800000037997961,
				0.00800000037997961
			],
			"translation":[
				1.1892449855804443,
				1,
				-3.2688536643981934
			]
		},
		{
			"mesh":8,
			"name":"LampBulb",
			"rotation":[
				-1,
				0,
				0,
				1.9470718370939721e-07
			],
			"scale":[
				4.089926369488239e-05,
				1.9999999494757503e-05,
				4.099999932805076e-05
			],
			"translation":[
				-1.1545417308807373,
				2.2502591609954834,
				-1.9364757537841797
			]
		},
		{
			"mesh":9,
			"name":"SphereStripe",
			"scale":[
				0.5,
				0.5,
				0.5
			],
			"translation":[
				2.4828338623046875,
				0.5,
				-2.1886606216430664
			]
		},
		{
			"mesh":10,
			"name":"Cone",
			"scale":[
				0.5,
				1,
				0.5
			],
			"translation":[
				3.0031466484069824,
				1,
				-3.2392966747283936
			]
		},
		{
			"mesh":11,
			"name":"Object_2"
		},
		{
			"mesh":12,
			"name":"Object_10",
			"translation":[
				0,
				-473.131591796875,
				0
			]
		},
		{
			"mesh":13,
			"name":"Object_2.001"
		},
		{
			"mesh":14,
			"name":"Object_2.002"
		}
	],
	"materials":[
		{
			"doubleSided":true,
			"extensions":{
				"KHR_materials_specular":{
					"specularFactor":0
				},
				"KHR_materials_ior":{
					"ior":0
				}
			},
			"name":"Material.003",
			"pbrMetallicRoughness":{
				"baseColorFactor":[
					0.24695998430252075,
					0.03657392039895058,
					0.0011198727879673243,
					1
				],
				"metallicFactor":0
			}
		},
		{
			"doubleSided":true,
			"extensions":{
				"KHR_materials_specular":{
					"specularFactor":0
				}
			},
			"name":"WallsMaterial",
			"pbrMetallicRoughness":{
				"baseColorFactor":[
					0.6450698375701904,
					0.5695692896842957,
					0.4806259870529175,
					1
				],
				"metallicFactor":0
			}
		},
		{
			"doubleSided":true,
			"extensions":{
				"KHR_materials_specular":{
					"specularFactor":0
				}
			},
			"name":"Material.004",
			"pbrMetallicRoughness":{
				"baseColorFactor":[
					0.33469557762145996,
					0.33469557762145996,
					0.33469557762145996,
					1
				],
				"metallicFactor":0
			}
		},
		{
			"doubleSided":true,
			"extensions":{
				"KHR_materials_specular":{
					"specularFactor":0
				}
			},
			"name":"TorusMaterial",
			"pbrMetallicRoughness":{
				"baseColorFactor":[
					0.169717937707901,
					0.02707228623330593,
					0.012643365189433098,
					1
				],
				"metallicFactor":0,
				"roughnessFactor":0.5
			}
		},
		{
			"doubleSided":true,
			"extensions":{
				"KHR_materials_specular":{
					"specularFactor":0
				}
			},
			"name":"BallMaterial1",
			"pbrMetallicRoughness":{
				"baseColorFactor":[
					0.7071220874786377,
					0.30091792345046997,
					0.0021528671495616436,
					1
				],
				"metallicFactor":0
			}
		},
		{
			"doubleSided":true,
			"extensions":{
				"KHR_materials_specular":{
					"specularFactor":0
				},
				"KHR_materials_ior":{
					"ior":1
				}
			},
			"name":"TeapotMaterial",
			"pbrMetallicRoughness":{
				"baseColorFactor":[
					0.800796627998352,
					0.36578792333602905,
					0,
					1
				],
				"metallicFactor":0
			}
		},
		{
			"doubleSided":true,
			"emissiveFactor":[
				1,
				1,
				1
			],
			"extensions":{
				"KHR_materials_emissive_strength":{
					"emissiveStrength":100
				},
				"KHR_materials_specular":{
					"specularFactor":0
				}
			},
			"name":"Light",
			"pbrMetallicRoughness":{
				"baseColorFactor":[
					0.800000011920929,
					0.800000011920929,
					0.800000011920929,
					1
				],
				"metallicFactor":0
			}
		},
		{
			"doubleSided":true,
			"extensions":{
				"KHR_materials_specular":{
					"specularFactor":0
				}
			},
			"name":"BallMaterial2",
			"pbrMetallicRoughness":{
				"baseColorFactor":[
					0.0017473598709329963,
					0.01471986435353756,
					0.5586147308349609,
					1
				],
				"metallicFactor":0
			}
		},
		{
			"doubleSided":true,
			"extensions":{
				"KHR_materials_specular":{
					"specularFactor":0
				}
			},
			"name":"ConeMaterial",
			"pbrMetallicRoughness":{
				"baseColorFactor":[
					0.011663577519357204,
					0.05299650505185127,
					0.24108406901359558,
					1
				],
				"metallicFactor":0
			}
		},
		{
			"doubleSided":true,
			"extensions":{
				"KHR_materials_specular":{
					"specularFactor":0
				}
			},
			"name":"LampMaterial",
			"pbrMetallicRoughness":{
				"baseColorFactor":[
					0.026149120181798935,
					0.010821424424648285,
					0.005302763544023037,
					1
				],
				"metallicFactor":0
			}
		},
		{
			"doubleSided":true,
			"extensions":{
				"KHR_materials_transmission":{
					"transmissionFactor":0.10000000149011612
				},
				"KHR_materials_specular":{
					"specularFactor":0
				}
			},
			"name":"LampShadeMaterial",
			"pbrMetallicRoughness":{
				"baseColorFactor":[
					0.6551254987716675,
					0.5458580851554871,
					0.3140852451324463,
					1
				],
				"metallicFactor":0
			}
		},
		{
			"doubleSided":true,
			"extensions":{
				"KHR_materials_specular":{
					"specularFactor":0
				}
			},
			"name":"LampMaterial.001",
			"pbrMetallicRoughness":{
				"baseColorFactor":[
					0.026149120181798935,
					0.010821424424648285,
					0.005302763544023037,
					1
				],
				"metallicFactor":0
			}
		},
		{
			"doubleSided":true,
			"extensions":{
				"KHR_materials_specular":{
					"specularFactor":0
				}
			},
			"name":"LampMaterial.002",
			"pbrMetallicRoughness":{
				"baseColorFactor":[
					0.026149120181798935,
					0.010821424424648285,
					0.005302763544023037,
					1
				],
				"metallicFactor":0
			}
		}
	],
	"meshes":[
		{
			"name":"Plane",
			"primitives":[
				{
					"attributes":{
						"POSITION":0,
						"NORMAL":1,
						"TANGENT":2
					},
					"indices":3,
					"material":0
				}
			]
		},
		{
			"name":"Plane.001",
			"primitives":[
				{
					"attributes":{
						"POSITION":4,
						"NORMAL":5,
						"TANGENT":6
					},
					"indices":3
				}
			]
		},
		{
			"name":"Plane.002",
			"primitives":[
				{
					"attributes":{
						"POSITION":7,
						"NORMAL":8,
						"TANGENT":9
					},
					"indices":3,
					"material":1
				}
			]
		},
		{
			"name":"Plane.003",
			"primitives":[
				{
					"attributes":{
						"POSITION":10,
						"NORMAL":11,
						"TANGENT":12
					},
					"indices":3
				}
			]
		},
		{
			"name":"Cube.001",
			"primitives":[
				{
					"attributes":{
						"POSITION":13,
						"NORMAL":14,
						"TANGENT":15
					},
					"indices":16,
					"material":2
				}
			]
		},
		{
			"name":"Torus",
			"primitives":[
				{
					"attributes":{
						"POSITION":17,
						"NORMAL":18,
						"TANGENT":19
					},
					"indices":20,
					"material":3
				}
			]
		},
		{
			"name":"Sphere",
			"primitives":[
				{
					"attributes":{
						"POSITION":21,
						"NORMAL":22,
						"TANGENT":23
					},
					"indices":24,
					"material":4
				}
			]
		},
		{
			"name":"teapot",
			"primitives":[
				{
					"attributes":{
						"POSITION":25,
						"NORMAL":26,
						"TANGENT":27
					},
					"indices":28,
					"material":5
				}
			]
		},
		{
			"name":"Cylinder.001",
			"primitives":[
				{
					"attributes":{
						"POSITION":29,
						"NORMAL":30
					},
					"indices":31,
					"material":6
				}
			]
		},
		{
			"name":"Sphere.001",
			"primitives":[
				{
					"attributes":{
						"POSITION":32,
						"NORMAL":33,
						"TANGENT":34
					},
					"indices":35,
					"material":7
				}
			]
		},
		{
			"name":"Cone",
			"primitives":[
				{
					"attributes":{
						"POSITION":36,
						"NORMAL":37
					},
					"indices":38,
					"material":8
				}
			]
		},
		{
			"name":"Object_0.001",
			"primitives":[
				{
					"attributes":{
						"POSITION":39,
						"NORMAL":40,
						"TANGENT":41
					},
					"indices":42,
					"material":9
				}
			]
		},
		{
			"name":"Object_8.001",
			"primitives":[
				{
					"attributes":{
						"POSITION":43,
						"NORMAL":44,
						"TANGENT":45
					},
					"indices":46,
					"material":10
				}
			]
		},
		{
			"name":"Object_0.002",
			"primitives":[
				{
					"attributes":{
						"POSITION":47,
						"NORMAL":48,
						"TANGENT":49
					},
					"indices":50,
					"material":11
				}
			]
		},
		{
			"name":"Object_0.003",
			"primitives":[
				{
					"attributes":{
						"POSITION":51,
						"NORMAL":52,
						"TANGENT":53
					},
					"indices":50,
					"material":12
				}
			]
		}
	],
	"accessors":[
		{
			"bufferView":0,
			"componentType":5126,
			"count":4,
			"max":[
				1,
				0,
				1
			],
			"min":[
				-1,
				0,
				-1
			],
			"type":"VEC3"
		},
		{
			"bufferView":1,
			"componentType":5126,
			"count":4,
			"type":"VEC3"
		},
		{
			"bufferView":2,
			"componentType":5126,
			"count":4,
			"type":"VEC4"
		},
		{
			"bufferView":3,
			"componentType":5123,
			"count":6,
			"type":"SCALAR"
		},
		{
			"bufferView":4,
			"componentType":5126,
			"count":4,
			"max":[
				1,
				0,
				1
			],
			"min":[
				-1,
				0,
				-1
			],
			"type":"VEC3"
		},
		{
			"bufferView":5,
			"componentType":5126,
			"count":4,
			"type":"VEC3"
		},
		{
			"bufferView":6,
			"componentType":5126,
			"count":4,
			"type":"VEC4"
		},
		{
			"bufferView":7,
			"componentType":5126,
			"count":4,
			"max":[
				1,
				0,
				1
			],
			"min":[
				-1,
				0,
				-1
			],
			"type":"VEC3"
		},
		{
			"bufferView":8,
			"componentType":5126,
			"count":4,
			"type":"VEC3"
		},
		{
			"bufferView":9,
			"componentType":5126,
			"count":4,
			"type":"VEC4"
		},
		{
			"bufferView":10,
			"componentType":5126,
			"count":4,
			"max":[
				1,
				0,
				1
			],
			"min":[
				-1,
				0,
				-1
			],
			"type":"VEC3"
		},
		{
			"bufferView":11,
			"componentType":5126,
			"count":4,
			"type":"VEC3"
		},
		{
			"bufferView":12,
			"componentType":5126,
			"count":4,
			"type":"VEC4"
		},
		{
			"bufferView":13,
			"componentType":5126,
			"count":24,
			"max":[
				1,
				1,
				1
			],
			"min":[
				-1,
				-1,
				-1
			],
			"type":"VEC3"
		},
		{
			"bufferView":14,
			"componentType":5126,
			"count":24,
			"type":"VEC3"
		},
		{
			"bufferView":15,
			"componentType":5126,
			"count":24,
			"type":"VEC4"
		},
		{
			"bufferView":16,
			"componentType":5123,
			"count":36,
			"type":"SCALAR"
		},
		{
			"bufferView":17,
			"componentType":5126,
			"count":2304,
			"max":[
				1.4223724603652954,
				0.42236024141311646,
				1.4223724603652954
			],
			"min":[
				-1.4223724603652954,
				-0.42236024141311646,
				-1.4223724603652954
			],
			"type":"VEC3"
		},
		{
			"bufferView":18,
			"componentType":5126,
			"count":2304,
			"type":"VEC3"
		},
		{
			"bufferView":19,
			"componentType":5126,
			"count":2304,
			"type":"VEC4"
		},
		{
			"bufferView":20,
			"componentType":5123,
			"count":3456,
			"type":"SCALAR"
		},
		{
			"bufferView":21,
			"componentType":5126,
			"count":1472,
			"max":[
				0.9238794445991516,
				1,
				0.9238792657852173
			],
			"min":[
				-0.9238791465759277,
				-1,
				-0.9238790273666382
			],
			"type":"VEC3"
		},
		{
			"bufferView":22,
			"componentType":5126,
			"count":1472,
			"type":"VEC3"
		},
		{
			"bufferView":23,
			"componentType":5126,
			"count":1472,
			"type":"VEC4"
		},
		{
			"bufferView":24,
			"componentType":5123,
			"count":2112,
			"type":"SCALAR"
		},
		{
			"bufferView":25,
			"componentType":5126,
			"count":31757,
			"max":[
				82.29399871826172,
				47.9283561706543,
				0
			],
			"min":[
				-71.89253234863281,
				-47.9283561706543,
				-79.00656127929688
			],
			"type":"VEC3"
		},
		{
			"bufferView":26,
			"componentType":5126,
			"count":31757,
			"type":"VEC3"
		},
		{
			"bufferView":27,
			"componentType":5126,
			"count":31757,
			"type":"VEC4"
		},
		{
			"bufferView":28,
			"componentType":5123,
			"count":47112,
			"type":"SCALAR"
		},
		{
			"bufferView":29,
			"componentType":5126,
			"count":35,
			"max":[
				4084.635498046875,
				-59609.515625,
				4189.6689453125
			],
			"min":[
				-4084.660400390625,
				-84636.21875,
				-3774.80615234375
			],
			"type":"VEC3"
		},
		{
			"bufferView":30,
			"componentType":5126,
			"count":35,
			"type":"VEC3"
		},
		{
			"bufferView":31,
			"componentType":5123,
			"count":57,
			"type":"SCALAR"
		},
		{
			"bufferView":32,
			"componentType":5126,
			"count":512,
			"max":[
				0.9999997019767761,
				0.3826834559440613,
				0.9999993443489075
			],
			"min":[
				-0.9999990463256836,
				-0.3826834559440613,
				-1
			],
			"type":"VEC3"
		},
		{
			"bufferView":33,
			"componentType":5126,
			"count":512,
			"type":"VEC3"
		},
		{
			"bufferView":34,
			"componentType":5126,
			"count":512,
			"type":"VEC4"
		},
		{
			"bufferView":35,
			"componentType":5123,
			"count":768,
			"type":"SCALAR"
		},
		{
			"bufferView":36,
			"componentType":5126,
			"count":128,
			"max":[
				1,
				1,
				1
			],
			"min":[
				-1,
				-1,
				-1
			],
			"type":"VEC3"
		},
		{
			"bufferView":37,
			"componentType":5126,
			"count":128,
			"type":"VEC3"
		},
		{
			"bufferView":38,
			"componentType":5123,
			"count":186,
			"type":"SCALAR"
		},
		{
			"bufferView":39,
			"componentType":5126,
			"count":9133,
			"max":[
				298.0936279296875,
				972.4659423828125,
				353.4455871582031
			],
			"min":[
				-317.473388671875,
				-397.2940673828125,
				-196.7169189453125
			],
			"type":"VEC3"
		},
		{
			"bufferView":40,
			"componentType":5126,
			"count":9133,
			"type":"VEC3"
		},
		{
			"bufferView":41,
			"componentType":5126,
			"count":9133,
			"type":"VEC4"
		},
		{
			"bufferView":42,
			"componentType":5123,
			"count":31644,
			"type":"SCALAR"
		},
		{
			"bufferView":43,
			"componentType":5126,
			"count":487,
			"max":[
				248.68167114257812,
				171.91650390625,
				246.92083740234375
			],
			"min":[
				-245.6403045654297,
				-176.9334716796875,
				-247.40115356445312
			],
			"type":"VEC3"
		},
		{
			"bufferView":44,
			"componentType":5126,
			"count":487,
			"type":"VEC3"
		},
		{
			"bufferView":45,
			"componentType":5126,
			"count":487,
			"type":"VEC4"
		},
		{
			"bufferView":46,
			"componentType":5123,
			"count":741,
			"type":"SCALAR"
		},
		{
			"bufferView":47,
			"componentType":5126,
			"count":9138,
			"max":[
				800.8980102539062,
				-1.7319499512943176e-14,
				605.0830078125
			],
			"min":[
				185.33099365234375,
				-1369.760009765625,
				54.920501708984375
			],
			"type":"VEC3"
		},
		{
			"bufferView":48,
			"componentType":5126,
			"count":9138,
			"type":"VEC3"
		},
		{
			"bufferView":49,
			"componentType":5126,
			"count":9138,
			"type":"VEC4"
		},
		{
			"bufferView":50,
			"componentType":5123,
			"count":31644,
			"type":"SCALAR"
		},
		{
			"bufferView":51,
			"componentType":5126,
			"count":9138,
			"max":[
				800.8980102539062,
				-1.7319499512943176e-14,
				605.0830078125
			],
			"min":[
				185.33099365234375,
				-1369.760009765625,
				54.920501708984375
			],
			"type":"VEC3"
		},
		{
			"bufferView":52,
			"componentType":5126,
			"count":9138,
			"type":"VEC3"
		},
		{
			"bufferView":53,
			"componentType":5126,
			"count":9138,
			"type":"VEC4"
		}
	],
	"bufferViews":[
		{
			"buffer":0,
			"byteLength":48,
			"byteOffset":0,
			"target":34962
		},
		{
			"buffer":0,
			"byteLength":48,
			"byteOffset":48,
			"target":34962
		},
		{
			"buffer":0,
			"byteLength":64,
			"byteOffset":96,
			"target":34962
		},
		{
			"buffer":0,
			"byteLength":12,
			"byteOffset":160,
			"target":34963
		},
		{
			"buffer":0,
			"byteLength":48,
			"byteOffset":172,
			"target":34962
		},
		{
			"buffer":0,
			"byteLength":48,
			"byteOffset":220,
			"target":34962
		},
		{
			"buffer":0,
			"byteLength":64,
			"byteOffset":268,
			"target":34962
		},
		{
			"buffer":0,
			"byteLength":48,
			"byteOffset":332,
			"target":34962
		},
		{
			"buffer":0,
			"byteLength":48,
			"byteOffset":380,
			"target":34962
		},
		{
			"buffer":0,
			"byteLength":64,
			"byteOffset":428,
			"target":34962
		},
		{
			"buffer":0,
			"byteLength":48,
			"byteOffset":492,
			"target":34962
		},
		{
			"buffer":0,
			"byteLength":48,
			"byteOffset":540,
			"target":34962
		},
		{
			"buffer":0,
			"byteLength":64,
			"byteOffset":588,
			"target":34962
		},
		{
			"buffer":0,
			"byteLength":288,
			"byteOffset":652,
			"target":34962
		},
		{
			"buffer":0,
			"byteLength":288,
			"byteOffset":940,
			"target":34962
		},
		{
			"buffer":0,
			"byteLength":384,
			"byteOffset":1228,
			"target":34962
		},
		{
			"buffer":0,
			"byteLength":72,
			"byteOffset":1612,
			"target":34963
		},
		{
			"buffer":0,
			"byteLength":27648,
			"byteOffset":1684,
			"target":34962
		},
		{
			"buffer":0,
			"byteLength":27648,
			"byteOffset":29332,
			"target":34962
		},
		{
			"buffer":0,
			"byteLength":36864,
			"byteOffset":56980,
			"target":34962
		},
		{
			"buffer":0,
			"byteLength":6912,
			"byteOffset":93844,
			"target":34963
		},
		{
			"buffer":0,
			"byteLength":17664,
			"byteOffset":100756,
			"target":34962
		},
		{
			"buffer":0,
			"byteLength":17664,
			"byteOffset":118420,
			"target":34962
		},
		{
			"buffer":0,
			"byteLength":23552,
			"byteOffset":136084,
			"target":34962
		},
		{
			"buffer":0,
			"byteLength":4224,
			"byteOffset":159636,
			"target":34963
		},
		{
			"buffer":0,
			"byteLength":381084,
			"byteOffset":163860,
			"target":34962
		},
		{
			"buffer":0,
			"byteLength":381084,
			"byteOffset":544944,
			"target":34962
		},
		{
			"buffer":0,
			"byteLength":508112,
			"byteOffset":926028,
			"target":34962
		},
		{
			"buffer":0,
			"byteLength":94224,
			"byteOffset":1434140,
			"target":34963
		},
		{
			"buffer":0,
			"byteLength":420,
			"byteOffset":1528364,
			"target":34962
		},
		{
			"buffer":0,
			"byteLength":420,
			"byteOffset":1528784,
			"target":34962
		},
		{
			"buffer":0,
			"byteLength":114,
			"byteOffset":1529204,
			"target":34963
		},
		{
			"buffer":0,
			"byteLength":6144,
			"byteOffset":1529320,
			"target":34962
		},
		{
			"buffer":0,
			"byteLength":6144,
			"byteOffset":1535464,
			"target":34962
		},
		{
			"buffer":0,
			"byteLength":8192,
			"byteOffset":1541608,
			"target":34962
		},
		{
			"buffer":0,
			"byteLength":1536,
			"byteOffset":1549800,
			"target":34963
		},
		{
			"buffer":0,
			"byteLength":1536,
			"byteOffset":1551336,
			"target":34962
		},
		{
			"buffer":0,
			"byteLength":1536,
			"byteOffset":1552872,
			"target":34962
		},
		{
			"buffer":0,
			"byteLength":372,
			"byteOffset":1554408,
			"target":34963
		},
		{
			"buffer":0,
			"byteLength":109596,
			"byteOffset":1554780,
			"target":34962
		},
		{
			"buffer":0,
			"byteLength":109596,
			"byteOffset":1664376,
			"target":34962
		},
		{
			"buffer":0,
			"byteLength":146128,
			"byteOffset":1773972,
			"target":34962
		},
		{
			"buffer":0,
			"byteLength":63288,
			"byteOffset":1920100,
			"target":34963
		},
		{
			"buffer":0,
			"byteLength":5844,
			"byteOffset":1983388,
			"target":34962
		},
		{
			"buffer":0,
			"byteLength":5844,
			"byteOffset":1989232,
			"target":34962
		},
		{
			"buffer":0,
			"byteLength":7792,
			"byteOffset":1995076,
			"target":34962
		},
		{
			"buffer":0,
			"byteLength":1482,
			"byteOffset":2002868,
			"target":34963
		},
		{
			"buffer":0,
			"byteLength":109656,
			"byteOffset":2004352,
			"target":34962
		},
		{
			"buffer":0,
			"byteLength":109656,
			"byteOffset":2114008,
			"target":34962
		},
		{
			"buffer":0,
			"byteLength":146208,
			"byteOffset":2223664,
			"target":34962
		},
		{
			"buffer":0,
			"byteLength":63288,
			"byteOffset":2369872,
			"target":34963
		},
		{
			"buffer":0,
			"byteLength":109656,
			"byteOffset":2433160,
			"target":34962
		},
		{
			"buffer":0,
			"byteLength":109656,
			"byteOffset":2542816,
			"target":34962
		},
		{
			"buffer":0,
			"byteLength":146208,
			"byteOffset":2652472,
			"target":34962
		}
	],
	"buffers":[
		{
			"byteLength":2798680,
			"uri":"pixar-room-6.bin"
		}
	]
}
