{
	"asset":{
		"generator":"Khronos glTF Blender I/O v4.1.63",
		"version":"2.0"
	},
	"extensionsUsed":[
		"KHR_materials_specular",
		"KHR_materials_ior",
		"KHR_materials_emissive_strength"
	],
	"scene":0,
	"scenes":[
		{
			"name":"Scene",
			"nodes":[
				0,
				1,
				2,
				3,
				4,
				5,
				6,
				7,
				8
			]
		}
	],
	"nodes":[
		{
			"mesh":0,
			"name":"Icosphere",
			"translation":[
				0.8392752408981323,
				5.91615104675293,
				-0.5349588394165039
			]
		},
		{
			"mesh":1,
			"name":"Cube",
			"rotation":[
				0,
				-0.20253907144069672,
				0,
				0.9792742133140564
			],
			"translation":[
				1.531276822090149,
				1,
				-1.004835605621338
			]
		},
		{
			"mesh":2,
			"name":"Prism",
			"rotation":[
				0,
				-0.5988802313804626,
				0,
				0.8008385896682739
			],
			"scale":[
				1,
				2.5,
				1
			],
			"translation":[
				-0.8275316953659058,
				2.5,
				1.2661662101745605
			]
		},
		{
			"mesh":3,
			"name":"LeftWall",
			"rotation":[
				-0.7071068286895752,
				0,
				0,
				0.7071068286895752
			],
			"scale":[
				4,
				4,
				4
			],
			"translation":[
				0,
				4,
				4
			]
		},
		{
			"mesh":4,
			"name":"RightWall",
			"rotation":[
				0.7071068286895752,
				0,
				0,
				0.7071068286895752
			],
			"scale":[
				4,
				4,
				4
			],
			"translation":[
				0,
				4,
				-4
			]
		},
		{
			"mesh":5,
			"name":"Floor",
			"rotation":[
				0,
				0.7071068286895752,
				0,
				0.7071068286895752
			],
			"scale":[
				4,
				4,
				4
			]
		},
		{
			"mesh":6,
			"name":"BackWall",
			"rotation":[
				-0.5,
				-0.5,
				-0.5,
				0.5
			],
			"scale":[
				4,
				4,
				4
			],
			"translation":[
				-4,
				4,
				0
			]
		},
		{
			"mesh":7,
			"name":"Ceiling",
			"rotation":[
				0.7071068286895752,
				0,
				0.7071068286895752,
				3.090862321641907e-08
			],
			"scale":[
				4,
				4,
				4
			],
			"translation":[
				0,
				8,
				0
			]
		},
		{
			"mesh":8,
			"name":"Light",
			"rotation":[
				0.7071068286895752,
				0,
				0.7071068286895752,
				3.090862321641907e-08
			],
			"scale":[
				4,
				4,
				4
			],
			"translation":[
				0,
				8,
				0
			]
		}
	],
	"materials":[
		{
			"doubleSided":true,
			"extensions":{
				"KHR_materials_specular":{
					"specularFactor":0
				}
			},
			"name":"Blue Diffuse",
			"pbrMetallicRoughness":{
				"baseColorFactor":[
					0,
					0,
					1,
					1
				],
				"roughnessFactor":0
			}
		},
		{
			"doubleSided":true,
			"extensions":{
				"KHR_materials_specular":{
					"specularFactor":0
				},
				"KHR_materials_ior":{
					"ior":1
				}
			},
			"name":"WhiteDiffuse",
			"pbrMetallicRoughness":{
				"metallicFactor":0
			}
		},
		{
			"doubleSided":true,
			"extensions":{
				"KHR_materials_specular":{
					"specularFactor":0
				},
				"KHR_materials_ior":{
					"ior":1
				}
			},
			"name":"RedDiffuse",
			"pbrMetallicRoughness":{
				"baseColorFactor":[
					1,
					0,
					0,
					1
				],
				"metallicFactor":0
			}
		},
		{
			"doubleSided":true,
			"extensions":{
				"KHR_materials_specular":{
					"specularFactor":0
				},
				"KHR_materials_ior":{
					"ior":1
				}
			},
			"name":"GreenDiffuse",
			"pbrMetallicRoughness":{
				"baseColorFactor":[
					0,
					1,
					0,
					1
				],
				"metallicFactor":0
			}
		},
		{
			"doubleSided":true,
			"emissiveFactor":[
				1,
				1,
				1
			],
			"extensions":{
				"KHR_materials_emissive_strength":{
					"emissiveStrength":10
				}
			},
			"name":"Light",
			"pbrMetallicRoughness":{
				"metallicFactor":0,
				"roughnessFactor":0
			}
		}
	],
	"meshes":[
		{
			"name":"Icosphere",
			"primitives":[
				{
					"attributes":{
						"POSITION":0,
						"NORMAL":1,
						"TANGENT":2
					},
					"indices":3,
					"material":0
				}
			]
		},
		{
			"name":"Cube",
			"primitives":[
				{
					"attributes":{
						"POSITION":4,
						"NORMAL":5,
						"TANGENT":6
					},
					"indices":7,
					"material":1
				}
			]
		},
		{
			"name":"Cube.007",
			"primitives":[
				{
					"attributes":{
						"POSITION":8,
						"NORMAL":9,
						"TANGENT":10
					},
					"indices":7,
					"material":1
				}
			]
		},
		{
			"name":"Plane",
			"primitives":[
				{
					"attributes":{
						"POSITION":11,
						"NORMAL":12,
						"TANGENT":13
					},
					"indices":14,
					"material":2
				}
			]
		},
		{
			"name":"Plane.001",
			"primitives":[
				{
					"attributes":{
						"POSITION":15,
						"NORMAL":16,
						"TANGENT":17
					},
					"indices":14,
					"material":3
				}
			]
		},
		{
			"name":"Plane.002",
			"primitives":[
				{
					"attributes":{
						"POSITION":18,
						"NORMAL":19,
						"TANGENT":20
					},
					"indices":14,
					"material":1
				}
			]
		},
		{
			"name":"Plane.003",
			"primitives":[
				{
					"attributes":{
						"POSITION":21,
						"NORMAL":22,
						"TANGENT":23
					},
					"indices":14,
					"material":1
				}
			]
		},
		{
			"name":"Plane.004",
			"primitives":[
				{
					"attributes":{
						"POSITION":24,
						"NORMAL":25,
						"TANGENT":26
					},
					"indices":27,
					"material":1
				}
			]
		},
		{
			"name":"Plane.005",
			"primitives":[
				{
					"attributes":{
						"POSITION":28,
						"NORMAL":29,
						"TANGENT":30
					},
					"indices":31,
					"material":4
				}
			]
		}
	],
	"accessors":[
		{
			"bufferView":0,
			"componentType":5126,
			"count":240,
			"max":[
				0.9510578513145447,
				1,
				0.9999999403953552
			],
			"min":[
				-0.9510578513145447,
				-1,
				-0.9999999403953552
			],
			"type":"VEC3"
		},
		{
			"bufferView":1,
			"componentType":5126,
			"count":240,
			"type":"VEC3"
		},
		{
			"bufferView":2,
			"componentType":5126,
			"count":240,
			"type":"VEC4"
		},
		{
			"bufferView":3,
			"componentType":5123,
			"count":240,
			"type":"SCALAR"
		},
		{
			"bufferView":4,
			"componentType":5126,
			"count":24,
			"max":[
				1,
				1,
				1
			],
			"min":[
				-1,
				-1,
				-1
			],
			"type":"VEC3"
		},
		{
			"bufferView":5,
			"componentType":5126,
			"count":24,
			"type":"VEC3"
		},
		{
			"bufferView":6,
			"componentType":5126,
			"count":24,
			"type":"VEC4"
		},
		{
			"bufferView":7,
			"componentType":5123,
			"count":36,
			"type":"SCALAR"
		},
		{
			"bufferView":8,
			"componentType":5126,
			"count":24,
			"max":[
				1,
				1,
				1
			],
			"min":[
				-1,
				-1,
				-1
			],
			"type":"VEC3"
		},
		{
			"bufferView":9,
			"componentType":5126,
			"count":24,
			"type":"VEC3"
		},
		{
			"bufferView":10,
			"componentType":5126,
			"count":24,
			"type":"VEC4"
		},
		{
			"bufferView":11,
			"componentType":5126,
			"count":4,
			"max":[
				1,
				0,
				1
			],
			"min":[
				-1,
				0,
				-1
			],
			"type":"VEC3"
		},
		{
			"bufferView":12,
			"componentType":5126,
			"count":4,
			"type":"VEC3"
		},
		{
			"bufferView":13,
			"componentType":5126,
			"count":4,
			"type":"VEC4"
		},
		{
			"bufferView":14,
			"componentType":5123,
			"count":6,
			"type":"SCALAR"
		},
		{
			"bufferView":15,
			"componentType":5126,
			"count":4,
			"max":[
				1,
				0,
				1
			],
			"min":[
				-1,
				0,
				-1
			],
			"type":"VEC3"
		},
		{
			"bufferView":16,
			"componentType":5126,
			"count":4,
			"type":"VEC3"
		},
		{
			"bufferView":17,
			"componentType":5126,
			"count":4,
			"type":"VEC4"
		},
		{
			"bufferView":18,
			"componentType":5126,
			"count":4,
			"max":[
				1,
				0,
				1
			],
			"min":[
				-1,
				0,
				-1
			],
			"type":"VEC3"
		},
		{
			"bufferView":19,
			"componentType":5126,
			"count":4,
			"type":"VEC3"
		},
		{
			"bufferView":20,
			"componentType":5126,
			"count":4,
			"type":"VEC4"
		},
		{
			"bufferView":21,
			"componentType":5126,
			"count":4,
			"max":[
				1,
				0,
				1
			],
			"min":[
				-1,
				0,
				-1
			],
			"type":"VEC3"
		},
		{
			"bufferView":22,
			"componentType":5126,
			"count":4,
			"type":"VEC3"
		},
		{
			"bufferView":23,
			"componentType":5126,
			"count":4,
			"type":"VEC4"
		},
		{
			"bufferView":24,
			"componentType":5126,
			"count":8,
			"max":[
				1,
				0,
				1
			],
			"min":[
				-1,
				0,
				-1
			],
			"type":"VEC3"
		},
		{
			"bufferView":25,
			"componentType":5126,
			"count":8,
			"type":"VEC3"
		},
		{
			"bufferView":26,
			"componentType":5126,
			"count":8,
			"type":"VEC4"
		},
		{
			"bufferView":27,
			"componentType":5123,
			"count":24,
			"type":"SCALAR"
		},
		{
			"bufferView":28,
			"componentType":5126,
			"count":4,
			"max":[
				0.2332385778427124,
				0,
				0.2332385778427124
			],
			"min":[
				-0.2332385778427124,
				0,
				-0.2332385778427124
			],
			"type":"VEC3"
		},
		{
			"bufferView":29,
			"componentType":5126,
			"count":4,
			"type":"VEC3"
		},
		{
			"bufferView":30,
			"componentType":5126,
			"count":4,
			"type":"VEC4"
		},
		{
			"bufferView":31,
			"componentType":5123,
			"count":6,
			"type":"SCALAR"
		}
	],
	"bufferViews":[
		{
			"buffer":0,
			"byteLength":2880,
			"byteOffset":0,
			"target":34962
		},
		{
			"buffer":0,
			"byteLength":2880,
			"byteOffset":2880,
			"target":34962
		},
		{
			"buffer":0,
			"byteLength":3840,
			"byteOffset":5760,
			"target":34962
		},
		{
			"buffer":0,
			"byteLength":480,
			"byteOffset":9600,
			"target":34963
		},
		{
			"buffer":0,
			"byteLength":288,
			"byteOffset":10080,
			"target":34962
		},
		{
			"buffer":0,
			"byteLength":288,
			"byteOffset":10368,
			"target":34962
		},
		{
			"buffer":0,
			"byteLength":384,
			"byteOffset":10656,
			"target":34962
		},
		{
			"buffer":0,
			"byteLength":72,
			"byteOffset":11040,
			"target":34963
		},
		{
			"buffer":0,
			"byteLength":288,
			"byteOffset":11112,
			"target":34962
		},
		{
			"buffer":0,
			"byteLength":288,
			"byteOffset":11400,
			"target":34962
		},
		{
			"buffer":0,
			"byteLength":384,
			"byteOffset":11688,
			"target":34962
		},
		{
			"buffer":0,
			"byteLength":48,
			"byteOffset":12072,
			"target":34962
		},
		{
			"buffer":0,
			"byteLength":48,
			"byteOffset":12120,
			"target":34962
		},
		{
			"buffer":0,
			"byteLength":64,
			"byteOffset":12168,
			"target":34962
		},
		{
			"buffer":0,
			"byteLength":12,
			"byteOffset":12232,
			"target":34963
		},
		{
			"buffer":0,
			"byteLength":48,
			"byteOffset":12244,
			"target":34962
		},
		{
			"buffer":0,
			"byteLength":48,
			"byteOffset":12292,
			"target":34962
		},
		{
			"buffer":0,
			"byteLength":64,
			"byteOffset":12340,
			"target":34962
		},
		{
			"buffer":0,
			"byteLength":48,
			"byteOffset":12404,
			"target":34962
		},
		{
			"buffer":0,
			"byteLength":48,
			"byteOffset":12452,
			"target":34962
		},
		{
			"buffer":0,
			"byteLength":64,
			"byteOffset":12500,
			"target":34962
		},
		{
			"buffer":0,
			"byteLength":48,
			"byteOffset":12564,
			"target":34962
		},
		{
			"buffer":0,
			"byteLength":48,
			"byteOffset":12612,
			"target":34962
		},
		{
			"buffer":0,
			"byteLength":64,
			"byteOffset":12660,
			"target":34962
		},
		{
			"buffer":0,
			"byteLength":96,
			"byteOffset":12724,
			"target":34962
		},
		{
			"buffer":0,
			"byteLength":96,
			"byteOffset":12820,
			"target":34962
		},
		{
			"buffer":0,
			"byteLength":128,
			"byteOffset":12916,
			"target":34962
		},
		{
			"buffer":0,
			"byteLength":48,
			"byteOffset":13044,
			"target":34963
		},
		{
			"buffer":0,
			"byteLength":48,
			"byteOffset":13092,
			"target":34962
		},
		{
			"buffer":0,
			"byteLength":48,
			"byteOffset":13140,
			"target":34962
		},
		{
			"buffer":0,
			"byteLength":64,
			"byteOffset":13188,
			"target":34962
		},
		{
			"buffer":0,
			"byteLength":12,
			"byteOffset":13252,
			"target":34963
		}
	],
	"buffers":[
		{
			"byteLength":13264,
			"uri":"my_cornell_7.bin"
		}
	]
}
