{
	"asset":{
		"generator":"Khronos glTF Blender I/O v4.1.63",
		"version":"2.0"
	},
	"extensionsUsed":[
		"KHR_materials_emissive_strength"
	],
	"scene":0,
	"scenes":[
		{
			"name":"Scene",
			"nodes":[
				0,
				1,
				2,
				3
			]
		}
	],
	"nodes":[
		{
			"mesh":0,
			"name":"Light",
			"rotation":[
				0,
				0.7071068286895752,
				-0.7071068286895752,
				3.090862321641907e-08
			],
			"translation":[
				-278,
				547.7999877929688,
				-279.5
			]
		},
		{
			"mesh":1,
			"name":"large_box",
			"rotation":[
				0.41943973302841187,
				0.5692716240882874,
				-0.5692717432975769,
				0.41943982243537903
			],
			"scale":[
				165.00001525878906,
				165.00001525878906,
				330
			],
			"translation":[
				-368.0000305175781,
				165.00003051757812,
				-351
			]
		},
		{
			"mesh":2,
			"name":"small_box",
			"rotation":[
				0.10217303037643433,
				0.6996862292289734,
				-0.6996861100196838,
				0.10217301547527313
			],
			"scale":[
				82.50000762939453,
				82.50000762939453,
				82.50000762939453
			],
			"translation":[
				-185.00001525878906,
				82.50001525878906,
				-169
			]
		},
		{
			"mesh":3,
			"name":"cornell_box",
			"rotation":[
				0,
				-0.7071068286895752,
				0.7071068286895752,
				5.338509012631221e-08
			]
		}
	],
	"materials":[
		{
			"doubleSided":true,
			"emissiveFactor":[
				1,
				1,
				1
			],
			"extensions":{
				"KHR_materials_emissive_strength":{
					"emissiveStrength":100
				}
			},
			"name":"Emitter",
			"pbrMetallicRoughness":{
				"baseColorFactor":[
					0,
					0,
					0,
					1
				]
			}
		},
		{
			"doubleSided":true,
			"name":"box_Material",
			"pbrMetallicRoughness":{}
		},
		{
			"doubleSided":true,
			"name":"cbox_Material",
			"pbrMetallicRoughness":{}
		},
		{
			"doubleSided":true,
			"name":"cbox_red",
			"pbrMetallicRoughness":{}
		},
		{
			"doubleSided":true,
			"name":"cbox_green",
			"pbrMetallicRoughness":{}
		}
	],
	"meshes":[
		{
			"name":"Light",
			"primitives":[
				{
					"attributes":{
						"POSITION":0,
						"NORMAL":1
					},
					"indices":2,
					"material":0
				}
			]
		},
		{
			"name":"large_box",
			"primitives":[
				{
					"attributes":{
						"POSITION":3,
						"NORMAL":4
					},
					"indices":5,
					"material":1
				}
			]
		},
		{
			"name":"small_box",
			"primitives":[
				{
					"attributes":{
						"POSITION":6,
						"NORMAL":7
					},
					"indices":5,
					"material":1
				}
			]
		},
		{
			"name":"cornell_box",
			"primitives":[
				{
					"attributes":{
						"POSITION":8,
						"NORMAL":9
					},
					"indices":10,
					"material":2
				},
				{
					"attributes":{
						"POSITION":11,
						"NORMAL":12
					},
					"indices":2,
					"material":3
				},
				{
					"attributes":{
						"POSITION":13,
						"NORMAL":14
					},
					"indices":15,
					"material":4
				}
			]
		}
	],
	"accessors":[
		{
			"bufferView":0,
			"componentType":5126,
			"count":4,
			"max":[
				65,
				52.5,
				0
			],
			"min":[
				-65.00001525878906,
				-52.5,
				0
			],
			"type":"VEC3"
		},
		{
			"bufferView":1,
			"componentType":5126,
			"count":4,
			"type":"VEC3"
		},
		{
			"bufferView":2,
			"componentType":5123,
			"count":6,
			"type":"SCALAR"
		},
		{
			"bufferView":3,
			"componentType":5126,
			"count":24,
			"max":[
				0.5,
				0.5,
				0.5
			],
			"min":[
				-0.5,
				-0.5,
				-0.5
			],
			"type":"VEC3"
		},
		{
			"bufferView":4,
			"componentType":5126,
			"count":24,
			"type":"VEC3"
		},
		{
			"bufferView":5,
			"componentType":5123,
			"count":36,
			"type":"SCALAR"
		},
		{
			"bufferView":6,
			"componentType":5126,
			"count":24,
			"max":[
				1,
				1,
				1
			],
			"min":[
				-1,
				-1,
				-1
			],
			"type":"VEC3"
		},
		{
			"bufferView":7,
			"componentType":5126,
			"count":24,
			"type":"VEC3"
		},
		{
			"bufferView":8,
			"componentType":5126,
			"count":12,
			"max":[
				556,
				559.2000122070312,
				0
			],
			"min":[
				0,
				0,
				-548.7999877929688
			],
			"type":"VEC3"
		},
		{
			"bufferView":9,
			"componentType":5126,
			"count":12,
			"type":"VEC3"
		},
		{
			"bufferView":10,
			"componentType":5123,
			"count":18,
			"type":"SCALAR"
		},
		{
			"bufferView":11,
			"componentType":5126,
			"count":4,
			"max":[
				556,
				559.2000122070312,
				0
			],
			"min":[
				549.5999755859375,
				0,
				-548.7999877929688
			],
			"type":"VEC3"
		},
		{
			"bufferView":12,
			"componentType":5126,
			"count":4,
			"type":"VEC3"
		},
		{
			"bufferView":13,
			"componentType":5126,
			"count":4,
			"max":[
				0,
				559.2000122070312,
				0
			],
			"min":[
				0,
				0,
				-548.7999877929688
			],
			"type":"VEC3"
		},
		{
			"bufferView":14,
			"componentType":5126,
			"count":4,
			"type":"VEC3"
		},
		{
			"bufferView":15,
			"componentType":5123,
			"count":6,
			"type":"SCALAR"
		}
	],
	"bufferViews":[
		{
			"buffer":0,
			"byteLength":48,
			"byteOffset":0,
			"target":34962
		},
		{
			"buffer":0,
			"byteLength":48,
			"byteOffset":48,
			"target":34962
		},
		{
			"buffer":0,
			"byteLength":12,
			"byteOffset":96,
			"target":34963
		},
		{
			"buffer":0,
			"byteLength":288,
			"byteOffset":108,
			"target":34962
		},
		{
			"buffer":0,
			"byteLength":288,
			"byteOffset":396,
			"target":34962
		},
		{
			"buffer":0,
			"byteLength":72,
			"byteOffset":684,
			"target":34963
		},
		{
			"buffer":0,
			"byteLength":288,
			"byteOffset":756,
			"target":34962
		},
		{
			"buffer":0,
			"byteLength":288,
			"byteOffset":1044,
			"target":34962
		},
		{
			"buffer":0,
			"byteLength":144,
			"byteOffset":1332,
			"target":34962
		},
		{
			"buffer":0,
			"byteLength":144,
			"byteOffset":1476,
			"target":34962
		},
		{
			"buffer":0,
			"byteLength":36,
			"byteOffset":1620,
			"target":34963
		},
		{
			"buffer":0,
			"byteLength":48,
			"byteOffset":1656,
			"target":34962
		},
		{
			"buffer":0,
			"byteLength":48,
			"byteOffset":1704,
			"target":34962
		},
		{
			"buffer":0,
			"byteLength":48,
			"byteOffset":1752,
			"target":34962
		},
		{
			"buffer":0,
			"byteLength":48,
			"byteOffset":1800,
			"target":34962
		},
		{
			"buffer":0,
			"byteLength":12,
			"byteOffset":1848,
			"target":34963
		}
	],
	"buffers":[
		{
			"byteLength":1860,
			"uri":"Cycles.bin"
		}
	]
}
