{
	"asset":{
		"generator":"Khronos glTF Blender I/O v4.1.63",
		"version":"2.0"
	},
	"extensionsUsed":[
		"KHR_materials_emissive_strength"
	],
	"scene":0,
	"scenes":[
		{
			"name":"Scene",
			"nodes":[
				0,
				1,
				2,
				3,
				4,
				5,
				6,
				7,
				8
			]
		}
	],
	"nodes":[
		{
			"mesh":0,
			"name":"Cube",
			"rotation":[
				0,
				-0.20253907144069672,
				0,
				0.9792742133140564
			],
			"translation":[
				1.531276822090149,
				1,
				-1.004835605621338
			]
		},
		{
			"mesh":1,
			"name":"LeftWall",
			"rotation":[
				-0.7071068286895752,
				0,
				0,
				0.7071068286895752
			],
			"scale":[
				4,
				4,
				4
			],
			"translation":[
				0,
				4,
				4
			]
		},
		{
			"mesh":2,
			"name":"RightWall",
			"rotation":[
				0.7071068286895752,
				0,
				0,
				0.7071068286895752
			],
			"scale":[
				4,
				4,
				4
			],
			"translation":[
				0,
				4,
				-4
			]
		},
		{
			"mesh":3,
			"name":"Floor",
			"rotation":[
				0,
				0.7071068286895752,
				0,
				0.7071068286895752
			],
			"scale":[
				4,
				4,
				4
			]
		},
		{
			"mesh":4,
			"name":"BackWall",
			"rotation":[
				-0.5,
				-0.5,
				-0.5,
				0.5
			],
			"scale":[
				4,
				4,
				4
			],
			"translation":[
				-4,
				4,
				0
			]
		},
		{
			"mesh":5,
			"name":"Ceiling",
			"rotation":[
				0.7071068286895752,
				0,
				0.7071068286895752,
				3.090862321641907e-08
			],
			"scale":[
				4,
				4,
				4
			],
			"translation":[
				0,
				8,
				0
			]
		},
		{
			"mesh":6,
			"name":"NotLight",
			"rotation":[
				0.7071068286895752,
				0,
				0.7071068286895752,
				3.090862321641907e-08
			],
			"scale":[
				4,
				4,
				4
			],
			"translation":[
				0,
				8,
				0
			]
		},
		{
			"mesh":7,
			"name":"Light",
			"rotation":[
				-0.7071068286895752,
				0,
				0,
				0.7071068286895752
			],
			"scale":[
				4,
				4,
				4
			],
			"translation":[
				0,
				4,
				4
			]
		},
		{
			"mesh":8,
			"name":"Cube.001",
			"rotation":[
				0,
				-0.3411915600299835,
				0,
				0.9399937987327576
			],
			"scale":[
				0.36805301904678345,
				0.36805301904678345,
				0.36805301904678345
			],
			"translation":[
				-1.5761425495147705,
				2.755631923675537,
				-0.30548095703125
			]
		}
	],
	"materials":[
		{
			"doubleSided":true,
			"name":"WhiteDiffuse",
			"pbrMetallicRoughness":{
				"metallicFactor":0.5350378751754761,
				"roughnessFactor":0.5
			}
		},
		{
			"doubleSided":true,
			"name":"RedDiffuse",
			"pbrMetallicRoughness":{
				"baseColorFactor":[
					1,
					0,
					0,
					1
				],
				"metallicFactor":0.4986742436885834,
				"roughnessFactor":0.45018938183784485
			}
		},
		{
			"doubleSided":true,
			"name":"GreenDiffuse",
			"pbrMetallicRoughness":{
				"baseColorFactor":[
					0,
					1,
					0,
					1
				],
				"metallicFactor":0.14715908467769623,
				"roughnessFactor":0.6138257384300232
			}
		},
		{
			"doubleSided":true,
			"emissiveFactor":[
				0.9734392166137695,
				1,
				0.36625292897224426
			],
			"extensions":{
				"KHR_materials_emissive_strength":{
					"emissiveStrength":10
				}
			},
			"name":"Light",
			"pbrMetallicRoughness":{
				"baseColorFactor":[
					0.673871636390686,
					0.6920905113220215,
					0.2563791275024414,
					1
				],
				"metallicFactor":0,
				"roughnessFactor":0
			}
		}
	],
	"meshes":[
		{
			"name":"Cube",
			"primitives":[
				{
					"attributes":{
						"POSITION":0,
						"NORMAL":1,
						"TANGENT":2
					},
					"indices":3,
					"material":0
				}
			]
		},
		{
			"name":"Plane",
			"primitives":[
				{
					"attributes":{
						"POSITION":4,
						"NORMAL":5,
						"TANGENT":6
					},
					"indices":7,
					"material":1
				}
			]
		},
		{
			"name":"Plane.001",
			"primitives":[
				{
					"attributes":{
						"POSITION":8,
						"NORMAL":9,
						"TANGENT":10
					},
					"indices":11,
					"material":2
				}
			]
		},
		{
			"name":"Plane.002",
			"primitives":[
				{
					"attributes":{
						"POSITION":12,
						"NORMAL":13,
						"TANGENT":14
					},
					"indices":11,
					"material":0
				}
			]
		},
		{
			"name":"Plane.003",
			"primitives":[
				{
					"attributes":{
						"POSITION":15,
						"NORMAL":16,
						"TANGENT":17
					},
					"indices":11,
					"material":0
				}
			]
		},
		{
			"name":"Plane.004",
			"primitives":[
				{
					"attributes":{
						"POSITION":18,
						"NORMAL":19,
						"TANGENT":20
					},
					"indices":7,
					"material":0
				}
			]
		},
		{
			"name":"Plane.005",
			"primitives":[
				{
					"attributes":{
						"POSITION":21,
						"NORMAL":22,
						"TANGENT":23
					},
					"indices":24,
					"material":0
				}
			]
		},
		{
			"name":"Plane.006",
			"primitives":[
				{
					"attributes":{
						"POSITION":25,
						"NORMAL":26,
						"TANGENT":27
					},
					"indices":24,
					"material":3
				}
			]
		},
		{
			"name":"Cube.001",
			"primitives":[
				{
					"attributes":{
						"POSITION":28,
						"NORMAL":29,
						"TANGENT":30
					},
					"indices":31,
					"material":2
				}
			]
		}
	],
	"accessors":[
		{
			"bufferView":0,
			"componentType":5126,
			"count":24,
			"max":[
				1,
				1,
				1
			],
			"min":[
				-1,
				-1,
				-1
			],
			"type":"VEC3"
		},
		{
			"bufferView":1,
			"componentType":5126,
			"count":24,
			"type":"VEC3"
		},
		{
			"bufferView":2,
			"componentType":5126,
			"count":24,
			"type":"VEC4"
		},
		{
			"bufferView":3,
			"componentType":5123,
			"count":36,
			"type":"SCALAR"
		},
		{
			"bufferView":4,
			"componentType":5126,
			"count":8,
			"max":[
				1,
				0,
				1
			],
			"min":[
				-1,
				0,
				-1
			],
			"type":"VEC3"
		},
		{
			"bufferView":5,
			"componentType":5126,
			"count":8,
			"type":"VEC3"
		},
		{
			"bufferView":6,
			"componentType":5126,
			"count":8,
			"type":"VEC4"
		},
		{
			"bufferView":7,
			"componentType":5123,
			"count":24,
			"type":"SCALAR"
		},
		{
			"bufferView":8,
			"componentType":5126,
			"count":4,
			"max":[
				1,
				0,
				1
			],
			"min":[
				-1,
				0,
				-1
			],
			"type":"VEC3"
		},
		{
			"bufferView":9,
			"componentType":5126,
			"count":4,
			"type":"VEC3"
		},
		{
			"bufferView":10,
			"componentType":5126,
			"count":4,
			"type":"VEC4"
		},
		{
			"bufferView":11,
			"componentType":5123,
			"count":6,
			"type":"SCALAR"
		},
		{
			"bufferView":12,
			"componentType":5126,
			"count":4,
			"max":[
				1,
				0,
				1
			],
			"min":[
				-1,
				0,
				-1
			],
			"type":"VEC3"
		},
		{
			"bufferView":13,
			"componentType":5126,
			"count":4,
			"type":"VEC3"
		},
		{
			"bufferView":14,
			"componentType":5126,
			"count":4,
			"type":"VEC4"
		},
		{
			"bufferView":15,
			"componentType":5126,
			"count":4,
			"max":[
				1,
				0,
				1
			],
			"min":[
				-1,
				0,
				-1
			],
			"type":"VEC3"
		},
		{
			"bufferView":16,
			"componentType":5126,
			"count":4,
			"type":"VEC3"
		},
		{
			"bufferView":17,
			"componentType":5126,
			"count":4,
			"type":"VEC4"
		},
		{
			"bufferView":18,
			"componentType":5126,
			"count":8,
			"max":[
				1,
				0,
				1
			],
			"min":[
				-1,
				0,
				-1
			],
			"type":"VEC3"
		},
		{
			"bufferView":19,
			"componentType":5126,
			"count":8,
			"type":"VEC3"
		},
		{
			"bufferView":20,
			"componentType":5126,
			"count":8,
			"type":"VEC4"
		},
		{
			"bufferView":21,
			"componentType":5126,
			"count":4,
			"max":[
				0.2332385778427124,
				0,
				0.2332385778427124
			],
			"min":[
				-0.2332385778427124,
				0,
				-0.2332385778427124
			],
			"type":"VEC3"
		},
		{
			"bufferView":22,
			"componentType":5126,
			"count":4,
			"type":"VEC3"
		},
		{
			"bufferView":23,
			"componentType":5126,
			"count":4,
			"type":"VEC4"
		},
		{
			"bufferView":24,
			"componentType":5123,
			"count":6,
			"type":"SCALAR"
		},
		{
			"bufferView":25,
			"componentType":5126,
			"count":4,
			"max":[
				0.6301307678222656,
				-0.027915334329009056,
				0.6301307678222656
			],
			"min":[
				-0.6301307678222656,
				-0.027915341779589653,
				-0.6301307678222656
			],
			"type":"VEC3"
		},
		{
			"bufferView":26,
			"componentType":5126,
			"count":4,
			"type":"VEC3"
		},
		{
			"bufferView":27,
			"componentType":5126,
			"count":4,
			"type":"VEC4"
		},
		{
			"bufferView":28,
			"componentType":5126,
			"count":94,
			"max":[
				1,
				6.1636505126953125,
				1.478994607925415
			],
			"min":[
				-1,
				-7.363508224487305,
				-1
			],
			"type":"VEC3"
		},
		{
			"bufferView":29,
			"componentType":5126,
			"count":94,
			"type":"VEC3"
		},
		{
			"bufferView":30,
			"componentType":5126,
			"count":94,
			"type":"VEC4"
		},
		{
			"bufferView":31,
			"componentType":5123,
			"count":150,
			"type":"SCALAR"
		}
	],
	"bufferViews":[
		{
			"buffer":0,
			"byteLength":288,
			"byteOffset":0,
			"target":34962
		},
		{
			"buffer":0,
			"byteLength":288,
			"byteOffset":288,
			"target":34962
		},
		{
			"buffer":0,
			"byteLength":384,
			"byteOffset":576,
			"target":34962
		},
		{
			"buffer":0,
			"byteLength":72,
			"byteOffset":960,
			"target":34963
		},
		{
			"buffer":0,
			"byteLength":96,
			"byteOffset":1032,
			"target":34962
		},
		{
			"buffer":0,
			"byteLength":96,
			"byteOffset":1128,
			"target":34962
		},
		{
			"buffer":0,
			"byteLength":128,
			"byteOffset":1224,
			"target":34962
		},
		{
			"buffer":0,
			"byteLength":48,
			"byteOffset":1352,
			"target":34963
		},
		{
			"buffer":0,
			"byteLength":48,
			"byteOffset":1400,
			"target":34962
		},
		{
			"buffer":0,
			"byteLength":48,
			"byteOffset":1448,
			"target":34962
		},
		{
			"buffer":0,
			"byteLength":64,
			"byteOffset":1496,
			"target":34962
		},
		{
			"buffer":0,
			"byteLength":12,
			"byteOffset":1560,
			"target":34963
		},
		{
			"buffer":0,
			"byteLength":48,
			"byteOffset":1572,
			"target":34962
		},
		{
			"buffer":0,
			"byteLength":48,
			"byteOffset":1620,
			"target":34962
		},
		{
			"buffer":0,
			"byteLength":64,
			"byteOffset":1668,
			"target":34962
		},
		{
			"buffer":0,
			"byteLength":48,
			"byteOffset":1732,
			"target":34962
		},
		{
			"buffer":0,
			"byteLength":48,
			"byteOffset":1780,
			"target":34962
		},
		{
			"buffer":0,
			"byteLength":64,
			"byteOffset":1828,
			"target":34962
		},
		{
			"buffer":0,
			"byteLength":96,
			"byteOffset":1892,
			"target":34962
		},
		{
			"buffer":0,
			"byteLength":96,
			"byteOffset":1988,
			"target":34962
		},
		{
			"buffer":0,
			"byteLength":128,
			"byteOffset":2084,
			"target":34962
		},
		{
			"buffer":0,
			"byteLength":48,
			"byteOffset":2212,
			"target":34962
		},
		{
			"buffer":0,
			"byteLength":48,
			"byteOffset":2260,
			"target":34962
		},
		{
			"buffer":0,
			"byteLength":64,
			"byteOffset":2308,
			"target":34962
		},
		{
			"buffer":0,
			"byteLength":12,
			"byteOffset":2372,
			"target":34963
		},
		{
			"buffer":0,
			"byteLength":48,
			"byteOffset":2384,
			"target":34962
		},
		{
			"buffer":0,
			"byteLength":48,
			"byteOffset":2432,
			"target":34962
		},
		{
			"buffer":0,
			"byteLength":64,
			"byteOffset":2480,
			"target":34962
		},
		{
			"buffer":0,
			"byteLength":1128,
			"byteOffset":2544,
			"target":34962
		},
		{
			"buffer":0,
			"byteLength":1128,
			"byteOffset":3672,
			"target":34962
		},
		{
			"buffer":0,
			"byteLength":1504,
			"byteOffset":4800,
			"target":34962
		},
		{
			"buffer":0,
			"byteLength":300,
			"byteOffset":6304,
			"target":34963
		}
	],
	"buffers":[
		{
			"byteLength":6604,
			"uri":"my_cornell_4.bin"
		}
	]
}
